<svg width="25" height="25" viewBox="0 0 25 25" fill="none" xmlns="http://www.w3.org/2000/svg">
<path d="M21.9571 13.1852L22.5495 10.9743C23.241 8.39351 23.5868 7.1031 23.3264 5.98638C23.1208 5.10463 22.6584 4.30365 21.9975 3.68473C21.1606 2.90087 19.8702 2.5551 17.2894 1.86358C14.7086 1.17205 13.4182 0.826284 12.3014 1.08667C11.4197 1.29226 10.6187 1.75471 9.99979 2.41553C9.32866 3.13208 8.97868 4.18107 8.45788 6.08776C8.37041 6.40798 8.27813 6.75239 8.17869 7.12348L8.17864 7.12367L7.58623 9.33457C6.8947 11.9154 6.54894 13.2058 6.80932 14.3225C7.01492 15.2043 7.47736 16.0052 8.13818 16.6242C8.9751 17.408 10.2655 17.7538 12.8463 18.4453L12.8463 18.4453C15.1725 19.0686 16.4504 19.411 17.4976 19.2819C17.6122 19.2677 17.7241 19.2479 17.8343 19.2222C18.716 19.0166 19.517 18.5542 20.1359 17.8934C20.9198 17.0565 21.2656 15.766 21.9571 13.1852Z" stroke="#00AE46" stroke-width="1.5"/>
<path d="M17.4972 19.2803C17.2586 20.011 16.839 20.672 16.2749 21.2004C15.438 21.9842 14.1476 22.33 11.5667 23.0215C8.98592 23.7131 7.69551 24.0588 6.57879 23.7984C5.69704 23.5928 4.89606 23.1304 4.27714 22.4696C3.49328 21.6327 3.14751 20.3422 2.45598 17.7614L1.86358 15.5505C1.17205 12.9697 0.826284 11.6793 1.08667 10.5626C1.29226 9.68083 1.75471 8.87985 2.41553 8.26093C3.25244 7.47707 4.54285 7.13131 7.12367 6.43978C7.61193 6.30895 8.054 6.1905 8.45745 6.08618" stroke="#00AE46" stroke-width="1.5"/>
<path d="M12.1875 10.1531L17.715 11.6342" stroke="#00AE46" stroke-width="1.5" stroke-linecap="round"/>
<path d="M11.2998 13.469L14.6163 14.3577" stroke="#00AE46" stroke-width="1.5" stroke-linecap="round"/>
</svg>
