<svg width="24" height="24" viewBox="0 0 24 24" fill="none" xmlns="http://www.w3.org/2000/svg">
<path d="M12 21.9963H18C18.5304 21.9963 19.0391 21.7856 19.4142 21.4106C19.7893 21.0355 20 20.5268 20 19.9963V6.99634L15 1.99634H6C5.46957 1.99634 4.96086 2.20705 4.58579 2.58212C4.21071 2.9572 4 3.4659 4 3.99634V13.9963" stroke="#909197" stroke-width="1.5" stroke-linecap="round" stroke-linejoin="round"/>
<path d="M14 1.99634V5.99634C14 6.52677 14.2107 7.03548 14.5858 7.41055C14.9609 7.78562 15.4696 7.99634 16 7.99634H20" stroke="#909197" stroke-width="1.5" stroke-linecap="round" stroke-linejoin="round"/>
<path d="M10.4 12.5964C10.7978 12.1986 11.3374 11.9751 11.9 11.9751C12.4626 11.9751 13.0022 12.1986 13.4 12.5964C13.7978 12.9942 14.0213 13.5338 14.0213 14.0964C14.0213 14.659 13.7978 15.1986 13.4 15.5964L8 20.9964L4 21.9964L5 17.9964L10.4 12.5964Z" stroke="#909197" stroke-width="1.5" stroke-linecap="round" stroke-linejoin="round"/>
</svg>
