<svg width="24" height="24" viewBox="0 0 24 24" fill="none" xmlns="http://www.w3.org/2000/svg">
<path d="M12.22 1.99463H11.78C11.2496 1.99463 10.7409 2.20534 10.3658 2.58042C9.99072 2.95549 9.78 3.4642 9.78 3.99463V4.17463C9.77964 4.52535 9.68706 4.86982 9.51154 5.17347C9.33602 5.47711 9.08374 5.72927 8.78 5.90463L8.35 6.15463C8.04596 6.33017 7.70108 6.42258 7.35 6.42258C6.99893 6.42258 6.65404 6.33017 6.35 6.15463L6.2 6.07463C5.74107 5.80989 5.19584 5.73807 4.684 5.87494C4.17217 6.0118 3.73555 6.34616 3.47 6.80463L3.25 7.18463C2.98526 7.64356 2.91345 8.18879 3.05031 8.70063C3.18717 9.21246 3.52154 9.64908 3.98 9.91463L4.13 10.0146C4.43228 10.1891 4.68362 10.4397 4.85905 10.7415C5.03448 11.0432 5.1279 11.3856 5.13 11.7346V12.2446C5.1314 12.597 5.03965 12.9436 4.86405 13.2491C4.68844 13.5547 4.43521 13.8084 4.13 13.9846L3.98 14.0746C3.52154 14.3402 3.18717 14.7768 3.05031 15.2886C2.91345 15.8005 2.98526 16.3457 3.25 16.8046L3.47 17.1846C3.73555 17.6431 4.17217 17.9775 4.684 18.1143C5.19584 18.2512 5.74107 18.1794 6.2 17.9146L6.35 17.8346C6.65404 17.6591 6.99893 17.5667 7.35 17.5667C7.70108 17.5667 8.04596 17.6591 8.35 17.8346L8.78 18.0846C9.08374 18.26 9.33602 18.5121 9.51154 18.8158C9.68706 19.1194 9.77964 19.4639 9.78 19.8146V19.9946C9.78 20.5251 9.99072 21.0338 10.3658 21.4088C10.7409 21.7839 11.2496 21.9946 11.78 21.9946H12.22C12.7504 21.9946 13.2591 21.7839 13.6342 21.4088C14.0093 21.0338 14.22 20.5251 14.22 19.9946V19.8146C14.2204 19.4639 14.3129 19.1194 14.4885 18.8158C14.664 18.5121 14.9163 18.26 15.22 18.0846L15.65 17.8346C15.954 17.6591 16.2989 17.5667 16.65 17.5667C17.0011 17.5667 17.346 17.6591 17.65 17.8346L17.8 17.9146C18.2589 18.1794 18.8042 18.2512 19.316 18.1143C19.8278 17.9775 20.2645 17.6431 20.53 17.1846L20.75 16.7946C21.0147 16.3357 21.0866 15.7905 20.9497 15.2786C20.8128 14.7668 20.4785 14.3302 20.02 14.0646L19.87 13.9846C19.5648 13.8084 19.3116 13.5547 19.136 13.2491C18.9604 12.9436 18.8686 12.597 18.87 12.2446V11.7446C18.8686 11.3922 18.9604 11.0457 19.136 10.7401C19.3116 10.4346 19.5648 10.1808 19.87 10.0046L20.02 9.91463C20.4785 9.64908 20.8128 9.21246 20.9497 8.70063C21.0866 8.18879 21.0147 7.64356 20.75 7.18463L20.53 6.80463C20.2645 6.34616 19.8278 6.0118 19.316 5.87494C18.8042 5.73807 18.2589 5.80989 17.8 6.07463L17.65 6.15463C17.346 6.33017 17.0011 6.42258 16.65 6.42258C16.2989 6.42258 15.954 6.33017 15.65 6.15463L15.22 5.90463C14.9163 5.72927 14.664 5.47711 14.4885 5.17347C14.3129 4.86982 14.2204 4.52535 14.22 4.17463V3.99463C14.22 3.4642 14.0093 2.95549 13.6342 2.58042C13.2591 2.20534 12.7504 1.99463 12.22 1.99463Z" stroke="#909197" stroke-width="1.5" stroke-linecap="round" stroke-linejoin="round"/>
<path d="M12 14.9946C13.6569 14.9946 15 13.6515 15 11.9946C15 10.3378 13.6569 8.99463 12 8.99463C10.3431 8.99463 9 10.3378 9 11.9946C9 13.6515 10.3431 14.9946 12 14.9946Z" stroke="#909197" stroke-width="1.5" stroke-linecap="round" stroke-linejoin="round"/>
</svg>
