<svg width="159" height="149" viewBox="0 0 159 149" fill="none" xmlns="http://www.w3.org/2000/svg">
<g filter="url(#filter0_d_0_15527)">
<rect x="114.938" y="10" width="92.0006" height="108.297" rx="21.8414" transform="rotate(70.268 114.938 10)" fill="white" shape-rendering="crispEdges"/>
<path opacity="0.5" d="M69.5806 45.8161C68.9018 43.9237 69.8857 41.8393 71.778 41.1606L88.9105 35.0155C90.8029 34.3367 92.8872 35.3205 93.566 37.2129C94.2447 39.1053 93.2609 41.1897 91.3685 41.8684L74.2361 48.0135C72.3437 48.6923 70.2594 47.7085 69.5806 45.8161Z" fill="#00AE46"/>
<path opacity="0.2" d="M74.1392 56.7313C73.4604 54.839 74.4442 52.7546 76.3366 52.0758L104.605 41.9364C106.498 41.2577 108.582 42.2415 109.261 44.1339C109.939 46.0263 108.956 48.1106 107.063 48.7894L78.7947 58.9288C76.9023 59.6076 74.8179 58.6237 74.1392 56.7313Z" fill="#00AE46"/>
<path opacity="0.2" d="M79.4937 66.329C78.8149 64.4366 79.7987 62.3522 81.6911 61.6735L109.96 51.5341C111.852 50.8553 113.936 51.8391 114.615 53.7315C115.294 55.6239 114.31 57.7083 112.418 58.387L84.1492 68.5264C82.2568 69.2052 80.1724 68.2214 79.4937 66.329Z" fill="#00AE46"/>
<path opacity="0.2" d="M45.782 100.309C45.1032 98.4166 46.0871 96.3323 47.9795 95.6535L97.0261 78.0614C98.9185 77.3826 101.003 78.3665 101.682 80.2588C102.36 82.1512 101.376 84.2356 99.4841 84.9144L50.4375 102.507C48.5451 103.185 46.4608 102.201 45.782 100.309Z" fill="#00AE46"/>
<path opacity="0.2" d="M49.0171 110.52C48.3383 108.628 49.3222 106.544 51.2146 105.865L93.4554 90.7139C95.3478 90.0351 97.4322 91.019 98.1109 92.9114C98.7897 94.8038 97.8059 96.8881 95.9135 97.5669L53.6726 112.718C51.7802 113.397 49.6959 112.413 49.0171 110.52Z" fill="#00AE46"/>
<circle opacity="0.1" cx="48.8789" cy="62.7879" r="18.2896" transform="rotate(-19.732 48.8789 62.7879)" fill="#00AE46"/>
<path fill-rule="evenodd" clip-rule="evenodd" d="M41.8567 79.6815C40.1503 73.5173 43.4658 66.9871 49.584 64.7926C55.7049 62.5971 62.4184 65.5349 65.0165 71.3837C62.9557 75.2582 59.5023 78.4077 55.0462 80.006C50.5857 81.6059 45.913 81.3674 41.8567 79.6815Z" fill="#00AE46"/>
<circle cx="47.1575" cy="57.9838" r="5.52941" transform="rotate(-19.732 47.1575 57.9838)" fill="#00AE46"/>
<path d="M114.411 71.4792C113.36 71.5732 112.348 72.0365 111.508 72.82C110.284 73.9505 109.631 75.5076 109.73 77.0436C109.788 77.9616 110.069 78.8778 110.483 79.5146C110.885 80.1368 112.06 81.3093 112.58 81.6147C112.844 81.7699 113.152 81.8199 113.469 81.7529C113.966 81.645 114.396 81.1522 114.434 80.6439C114.451 80.41 114.355 80.0592 114.219 79.8727C114.15 79.7726 113.867 79.4984 113.595 79.2657C112.941 78.6971 112.537 78.224 112.389 77.8421C111.944 76.6966 112.289 75.4015 113.26 74.5644C113.772 74.1229 114.312 73.9186 114.856 73.959C115.859 74.0333 117.049 74.9445 117.596 76.0524C117.832 76.5312 118.106 77.343 118.316 78.1816C118.501 78.91 118.715 79.9389 118.686 79.9594C118.677 79.9632 118.424 80.0802 118.129 80.2121C115.939 81.2077 114.08 82.7976 112.374 85.1271C110.98 87.032 110.259 88.6385 110.072 90.2483C109.892 91.8269 110.215 92.9679 111.042 93.6986C111.611 94.1976 112.139 94.3995 113.048 94.4668C113.615 94.5088 113.764 94.5063 114.204 94.4258C115.868 94.1284 117.273 93.1742 118.657 91.4043C120.075 89.5917 120.893 87.8341 121.303 85.7207C121.457 84.9271 121.561 83.2071 121.502 82.4158C121.475 82.052 121.456 81.7566 121.466 81.7528C121.513 81.7201 122.1 81.6776 122.43 81.6795C123.424 81.6898 124.124 82.0763 124.267 82.702C124.352 83.0837 124.26 84.1442 124.054 85.0878C123.876 85.9113 123.808 86.5847 123.873 86.8609C123.992 87.3355 124.343 87.7279 124.793 87.8788C125.115 87.9886 125.337 87.9824 125.69 87.8548C126.057 87.7237 126.319 87.4853 127.101 86.5799C127.956 85.5939 128.625 84.9877 129.016 84.8403C129.337 84.7238 129.377 84.7358 130.112 85.1838C130.441 85.38 130.686 85.5021 130.833 85.5266C131.172 85.5924 131.518 85.505 131.81 85.2779C132.395 84.8283 132.456 84.0141 131.948 83.4835C131.683 83.2061 130.722 82.6329 130.241 82.4661C129.805 82.3117 129.203 82.258 128.781 82.3309C128.337 82.411 127.682 82.6972 127.22 83.0202C126.996 83.1755 126.805 83.3016 126.796 83.3009C126.787 83.3003 126.775 83.1592 126.774 82.9917C126.723 80.5005 124.608 78.9508 121.647 79.238C121.429 79.258 121.219 79.2832 121.177 79.2937C121.118 79.3028 121.083 79.2189 121.011 78.8607C120.657 77.0978 120.171 75.5964 119.653 74.6535C119.203 73.8377 118.483 73.0472 117.688 72.4908C116.845 71.9037 116.106 71.6138 115.2 71.5195C114.89 71.4875 114.539 71.4705 114.411 71.4792ZM119.051 82.8493C119.077 83.4121 118.929 85.0428 118.797 85.6029C118.644 86.27 118.342 87.1658 118.096 87.6812C117.337 89.2577 115.998 90.9043 114.956 91.5417C114.359 91.9046 113.668 92.0795 113.117 92.0025C112.589 91.9317 112.486 91.7341 112.515 90.8588C112.544 89.9067 112.829 89.0594 113.507 87.9021C114.852 85.6138 116.735 83.7089 118.621 82.7225C118.814 82.6237 118.988 82.5416 119.001 82.5426C119.019 82.5439 119.041 82.6812 119.051 82.8493Z" fill="#00AE46"/>
<path d="M121.652 90.6173C121.072 90.6874 120.645 91.1397 120.597 91.7331C120.553 92.2591 120.768 92.6594 121.228 92.9151L121.445 93.0397L125.831 93.3646L130.216 93.6895L130.449 93.5982C130.938 93.4127 131.214 93.0442 131.248 92.5221C131.28 92.0225 131.078 91.6367 130.645 91.3829L130.398 91.238L126.125 90.9125C123.777 90.7386 121.761 90.6028 121.652 90.6173Z" fill="#00AE46"/>
</g>
<defs>
<filter id="filter0_d_0_15527" x="-5.52831" y="-5.65089" width="170.055" height="160.218" filterUnits="userSpaceOnUse" color-interpolation-filters="sRGB">
<feFlood flood-opacity="0" result="BackgroundImageFix"/>
<feColorMatrix in="SourceAlpha" type="matrix" values="0 0 0 0 0 0 0 0 0 0 0 0 0 0 0 0 0 0 127 0" result="hardAlpha"/>
<feOffset dy="2.87718"/>
<feGaussianBlur stdDeviation="9.26403"/>
<feComposite in2="hardAlpha" operator="out"/>
<feColorMatrix type="matrix" values="0 0 0 0 0 0 0 0 0 0 0 0 0 0 0 0 0 0 0.08 0"/>
<feBlend mode="normal" in2="BackgroundImageFix" result="effect1_dropShadow_0_15527"/>
<feBlend mode="normal" in="SourceGraphic" in2="effect1_dropShadow_0_15527" result="shape"/>
</filter>
</defs>
</svg>
