<svg width="93" height="46" viewBox="0 0 93 46" fill="none" xmlns="http://www.w3.org/2000/svg">
<path d="M19.9007 45.5472C18.5385 43.8824 16.8238 42.8134 14.6709 42.4729C14.2517 42.4067 13.8326 42.3783 13.4134 42.3688C11.5558 42.3594 9.70775 42.3688 7.85016 42.3688C6.71655 42.3688 5.61152 42.1797 4.56365 41.7351C2.70605 40.931 1.5534 39.5216 1.01041 37.6013C0.791306 36.8067 0.696045 35.9932 0.696045 35.1797C0.696045 23.5162 0.696045 11.8527 0.696045 0.198679C0.696045 0.141922 0.696045 0.075706 0.696045 3.05176e-05H39.1149C39.1149 0.0662466 39.1244 0.123003 39.1244 0.17976C39.1244 11.9 39.1244 23.6108 39.1244 35.331C39.1244 36.608 38.8958 37.8472 38.3147 38.9918C37.505 40.5999 36.1713 41.5648 34.4471 42.0378C33.6373 42.2553 32.8181 42.3594 31.9798 42.3594C30.1508 42.3594 28.3123 42.3594 26.4832 42.3594C24.4446 42.3594 22.6347 43.0121 21.0915 44.3364C20.6914 44.6769 20.3484 45.0837 19.9769 45.4621C19.9578 45.481 19.9483 45.5094 19.9388 45.5378H19.9007V45.5472ZM19.9483 43.854C19.9483 43.854 19.9769 43.8067 19.996 43.7783C21.7869 42.1229 23.9112 41.2621 26.3594 41.2432C28.1979 41.2242 30.0365 41.2432 31.875 41.2432C32.6181 41.2432 33.3516 41.1675 34.0756 40.9688C35.5521 40.5621 36.6857 39.7297 37.3525 38.3297C37.8193 37.3459 37.9813 36.2864 37.9813 35.208C37.9813 23.9229 37.9813 12.6378 37.9813 1.34327C37.9813 1.27705 37.9813 1.21084 37.9813 1.13516H1.83918V1.40003C1.83918 12.6568 1.83918 23.904 1.83918 35.1608C1.83918 35.7567 1.90586 36.3621 2.0297 36.9486C2.36311 38.4999 3.18236 39.7202 4.61128 40.4864C5.56389 40.9972 6.60224 41.2148 7.66916 41.2337C9.59344 41.2526 11.5177 41.2337 13.4325 41.2432C15.3472 41.2432 17.1095 41.8013 18.6813 42.8891C19.11 43.1824 19.5006 43.5229 19.9293 43.8634L19.9483 43.854Z" fill="#1C1D22"/>
<path d="M46.8213 15.9867C47.3452 15.9867 47.8501 15.9867 48.355 15.9867C48.4026 15.9867 48.4788 16.0718 48.5074 16.1286C49.0028 17.311 49.4981 18.5029 49.9935 19.6853C50.2888 20.4042 50.5841 21.1137 50.8889 21.8326C50.908 21.8799 50.9366 21.9177 50.9652 21.9839C51.1652 21.4921 51.3652 21.0285 51.5558 20.565C52.1654 19.0894 52.7846 17.6042 53.3848 16.1286C53.4324 16.0245 53.48 15.9772 53.6039 15.9772C54.0802 15.9772 54.5565 15.9772 55.0519 15.9772V23.7529H53.8135V18.2285C53.8135 18.2285 53.7849 18.2285 53.7754 18.2285C53.6515 18.5313 53.5181 18.834 53.3943 19.1461C52.7751 20.6312 52.1559 22.1164 51.5462 23.6015C51.4986 23.7056 51.451 23.7529 51.3367 23.7434C51.089 23.7434 50.8413 23.7339 50.6032 23.7434C50.4603 23.7434 50.3936 23.7056 50.3364 23.5731C49.622 21.8421 48.9075 20.111 48.1835 18.3799C48.1645 18.3326 48.1359 18.2758 48.0883 18.2285V23.7529H46.8213V15.9772V15.9867Z" fill="#1C1D22"/>
<path d="M46.8213 27.0359C47.3452 27.0359 47.8501 27.0359 48.355 27.0359C48.4026 27.0359 48.4788 27.121 48.5074 27.1778C49.0028 28.3602 49.4981 29.5521 49.9935 30.7345C50.2888 31.4534 50.5841 32.1629 50.8889 32.8818C50.908 32.9291 50.9366 32.967 50.9652 33.0332C51.1652 32.5413 51.3652 32.0778 51.5558 31.6143C52.1654 30.1386 52.7846 28.6535 53.3848 27.1778C53.4324 27.0737 53.48 27.0264 53.6039 27.0264C54.0802 27.0264 54.5565 27.0264 55.0519 27.0264V34.8021H53.8135V29.2778C53.8135 29.2778 53.7849 29.2778 53.7754 29.2778C53.642 29.5899 53.5182 29.9021 53.3848 30.2048C52.7656 31.6805 52.1559 33.1656 51.5462 34.6413C51.4986 34.7453 51.451 34.7926 51.3367 34.7832C51.089 34.7832 50.8413 34.7737 50.6032 34.7832C50.4603 34.7832 50.3936 34.7453 50.3364 34.6129C49.622 32.8818 48.9075 31.1507 48.1835 29.4197C48.1645 29.3724 48.1359 29.3156 48.0883 29.2683V34.7926H46.8213V27.017V27.0359Z" fill="#1C1D22"/>
<path d="M79.0601 34.8104V27.0442C79.1077 27.0442 79.1553 27.0347 79.1934 27.0347C80.2127 27.0347 81.232 27.0347 82.2513 27.0442C82.8705 27.0536 83.4421 27.2239 83.9089 27.659C84.7757 28.4536 84.6709 30.1563 83.5659 30.7144C83.5469 30.7239 83.5278 30.7428 83.5088 30.7523C83.6421 30.8185 83.785 30.8752 83.9089 30.9509C84.5947 31.386 84.8329 32.0293 84.7757 32.805C84.7091 33.7887 84.0232 34.5171 82.9658 34.7441C82.7181 34.7914 82.4704 34.8198 82.2227 34.8293C81.213 34.8293 80.2032 34.8293 79.1934 34.8293C79.1458 34.8293 79.1077 34.8293 79.0505 34.8198L79.0601 34.8104ZM80.3842 33.6941C80.9558 33.6941 81.4987 33.6941 82.0417 33.6941C82.1084 33.6941 82.1656 33.6941 82.2323 33.6941C82.4228 33.6563 82.6133 33.6185 82.7943 33.5523C83.0706 33.4387 83.2801 33.2306 83.3754 32.9468C83.6231 32.2374 83.223 31.5185 82.4609 31.4333C81.775 31.3671 81.0891 31.4144 80.3842 31.4144V33.6941ZM80.3842 30.2887C80.9558 30.2887 81.5083 30.3077 82.0608 30.2887C82.4609 30.2793 82.8134 30.1374 83.0134 29.7685C83.3944 29.0685 82.9658 28.2644 82.1561 28.1982C81.6035 28.1604 81.0415 28.1793 80.4795 28.1698C80.3556 28.1698 80.3651 28.2455 80.3651 28.3306C80.3651 28.936 80.3651 29.5415 80.3651 30.1469C80.3651 30.1942 80.3651 30.232 80.3747 30.2982L80.3842 30.2887Z" fill="#1C1D22"/>
<path d="M64.5297 12.864C62.7102 12.864 61.3194 11.7194 60.9574 9.92209C60.7383 8.82479 60.8145 7.75588 61.3194 6.74372C62.0148 5.35318 63.377 4.72886 64.825 4.83291C66.5683 4.95588 67.8448 6.17615 68.1401 8.00182C68.283 8.86263 68.2258 9.70452 67.921 10.5275C67.3685 12.0221 66.1301 12.8734 64.5297 12.8734V12.864ZM66.8541 8.84371C66.8541 8.25723 66.7493 7.69912 66.473 7.17885C65.7586 5.83561 63.8724 5.60859 62.8817 6.75318C62.4721 7.22615 62.2911 7.79372 62.2339 8.39912C62.1577 9.18425 62.2434 9.94101 62.6626 10.6221C63.4247 11.8802 65.2537 12.0221 66.1968 10.8964C66.6921 10.3005 66.8445 9.59101 66.8541 8.83425V8.84371Z" fill="#1C1D22"/>
<path d="M56.176 31.0546C56.1856 29.9195 56.4142 28.9736 57.0715 28.1695C57.8431 27.2236 58.8814 26.8546 60.0817 26.9114C60.9391 26.9492 61.7012 27.2519 62.3299 27.8479C62.9681 28.4533 63.3111 29.21 63.454 30.0708C63.6159 31.0641 63.5397 32.0384 63.092 32.956C62.4537 34.2519 61.3963 34.9141 59.9484 34.9519C58.9672 34.9803 58.1003 34.706 57.3763 34.0343C56.6904 33.4006 56.3475 32.5965 56.2237 31.6884C56.1856 31.433 56.176 31.1776 56.1665 31.0546H56.176ZM57.5383 30.8087C57.5287 31.31 57.5764 31.8019 57.7669 32.2749C58.1194 33.1546 58.7481 33.6938 59.7293 33.7411C60.6438 33.7884 61.3678 33.4195 61.7869 32.606C62.349 31.4992 62.349 30.3546 61.7869 29.2479C61.3773 28.4438 60.6628 28.0844 59.7674 28.1127C58.9196 28.1411 58.3099 28.5479 57.9193 29.2857C57.6621 29.7587 57.5668 30.2695 57.5573 30.8087H57.5383Z" fill="#1C1D22"/>
<path d="M56.1267 21.3367C56.5649 21.3367 56.9745 21.3367 57.3842 21.3367C57.4223 21.3367 57.4699 21.3934 57.4889 21.4407C58.0605 22.9353 60.061 23.0488 60.966 22.0934C61.3565 21.6772 61.69 20.9015 61.6614 20.3623C61.147 20.3623 60.6326 20.3623 60.1086 20.3623C59.5847 20.3623 59.0798 20.3623 58.5559 20.3623V19.2367H61.6423C61.6233 19.1137 61.6138 19.0096 61.5947 18.9056C61.4328 18.1867 61.0898 17.5813 60.3944 17.2502C59.4894 16.8245 58.0034 16.9948 57.4985 18.3191C57.4794 18.3664 57.4127 18.4137 57.3746 18.4137C56.9745 18.4137 56.5744 18.4137 56.1553 18.4137C56.2029 18.0921 56.3077 17.7894 56.4601 17.5151C56.9936 16.5218 57.8509 16.0016 58.9655 15.8691C59.7276 15.7745 60.4611 15.8691 61.1374 16.2286C62.0139 16.6826 62.5664 17.411 62.8331 18.3475C63.1951 19.6151 63.1665 20.8732 62.5473 22.065C61.9281 23.2475 60.9088 23.834 59.5752 23.8907C58.8512 23.9191 58.1653 23.7961 57.5461 23.4083C56.7745 22.9353 56.3077 22.2448 56.1267 21.3272V21.3367Z" fill="#1C1D22"/>
<path d="M46.8213 4.94629H53.1466V12.7219H51.832V6.14764H48.1549V12.7219H46.8213V4.94629Z" fill="#1C1D22"/>
<path d="M81.6858 4.94629C80.5236 6.20439 79.39 7.43412 78.2469 8.68277C79.4091 10.026 80.5617 11.3692 81.7334 12.7219C81.6668 12.7219 81.6191 12.7409 81.581 12.7409C81.1238 12.7409 80.6665 12.7409 80.2093 12.7409C80.1235 12.7409 80.0187 12.6936 79.9711 12.6274C78.9995 11.5301 78.0278 10.4328 77.0656 9.33547C77.0371 9.29763 76.999 9.25979 76.9323 9.19358V12.7409H75.6082V4.95575H76.9228V8.24763L76.9894 8.29493C77.018 8.24763 77.0371 8.18142 77.0847 8.14358C78.0468 7.1125 78.9995 6.08142 79.9711 5.0598C80.0283 5.00305 80.1331 4.95575 80.2188 4.95575C80.6951 4.94629 81.1714 4.95575 81.6953 4.95575L81.6858 4.94629Z" fill="#1C1D22"/>
<path d="M78.3064 27.0389C77.1442 28.297 76.0106 29.5362 74.8675 30.7754C76.0297 32.1186 77.1823 33.4619 78.3541 34.824C78.2683 34.824 78.2112 34.8335 78.154 34.8335C77.7253 34.8335 77.2967 34.8335 76.868 34.8335C76.7346 34.8335 76.6489 34.7956 76.5631 34.701C75.6105 33.6132 74.6484 32.5254 73.6958 31.4375C73.6577 31.3902 73.6101 31.3524 73.5434 31.2673V34.8146H72.2192V27.0389H73.5338V30.3686C73.591 30.3213 73.6291 30.2929 73.6577 30.2646C74.6293 29.224 75.601 28.1835 76.5822 27.143C76.6394 27.0862 76.7441 27.0389 76.8299 27.0389C77.3062 27.0294 77.7825 27.0389 78.3064 27.0389Z" fill="#1C1D22"/>
<path d="M69.3103 4.94629H74.3973V6.11926H70.6344V8.1625H74.1877V9.31655H70.6344V11.549H74.3973V12.7219H69.3103V4.94629Z" fill="#1C1D22"/>
<path d="M76.6971 23.7804C76.2494 23.7804 75.8302 23.7804 75.4015 23.7804C75.3539 23.7804 75.2968 23.7142 75.2777 23.6574C75.0777 23.1371 74.8871 22.6074 74.7061 22.0777C74.668 21.9736 74.6299 21.9263 74.5061 21.9263C73.5725 21.9263 72.6485 21.9263 71.7149 21.9263C71.6006 21.9263 71.5435 21.9547 71.5054 22.0682C71.3244 22.5885 71.1338 23.0993 70.9624 23.6196C70.9243 23.7425 70.8576 23.7804 70.7337 23.7804C70.3336 23.7804 69.9336 23.7804 69.5144 23.7804C69.6192 23.4871 69.7145 23.2317 69.8192 22.9669C70.6671 20.6966 71.5244 18.4169 72.3627 16.1466C72.4104 16.0236 72.458 15.9858 72.5913 15.9858C72.9533 15.9953 73.3249 15.9858 73.6869 15.9858C73.7726 15.9858 73.8202 16.0047 73.8488 16.0899C74.8014 18.625 75.7445 21.1696 76.6971 23.7047C76.6971 23.7236 76.6971 23.7331 76.7162 23.7804H76.6971ZM74.2203 20.7723C73.8393 19.7128 73.4677 18.6628 73.0867 17.5655C72.7057 18.6534 72.3341 19.7034 71.9626 20.7723H74.2298H74.2203Z" fill="#1C1D22"/>
<path d="M71.1504 29.579C70.7217 29.579 70.3121 29.579 69.9024 29.579C69.8548 29.579 69.7977 29.4939 69.7786 29.4371C69.5214 28.7371 69.0451 28.2831 68.2925 28.1601C67.197 27.9709 66.3016 28.4628 65.8824 29.4939C65.4918 30.4777 65.4918 31.4804 65.911 32.4547C66.5778 33.9871 68.2068 33.9966 69.0641 33.4006C69.4547 33.1263 69.7119 32.7574 69.8262 32.2844H71.1599C71.1123 32.7763 70.9313 33.2209 70.655 33.6182C70.093 34.4222 69.3023 34.8385 68.3497 34.9425C67.1875 35.0655 66.1491 34.7912 65.3204 33.9303C64.7488 33.3439 64.444 32.6249 64.3201 31.8304C64.1677 30.8844 64.2344 29.9574 64.6059 29.0682C65.2156 27.6114 66.5873 26.7885 68.1782 26.9304C68.9975 27.006 69.731 27.2709 70.3121 27.8668C70.7693 28.3398 71.0265 28.9168 71.1408 29.5885L71.1504 29.579Z" fill="#1C1D22"/>
<path d="M55.9557 10.0465V12.7235H54.6316V4.96678C54.6316 4.96678 54.6792 4.94786 54.7078 4.94786C55.6985 4.94786 56.6797 4.92894 57.6704 4.95732C58.5373 4.9857 59.2994 5.2884 59.7757 6.05461C60.3282 6.93434 60.3568 7.87082 59.8614 8.77893C59.3946 9.6492 58.5945 10.0181 57.6323 10.037C57.0893 10.0465 56.5368 10.037 55.9652 10.037L55.9557 10.0465ZM55.9557 8.89244C56.4892 8.89244 57.0131 8.91136 57.5371 8.89244C58.2991 8.85461 58.8231 8.2965 58.8231 7.53974C58.8231 6.72623 58.3563 6.18704 57.5561 6.13975C57.0512 6.11137 56.5463 6.12083 56.0319 6.12083C56.0034 6.12083 55.9748 6.13029 55.9462 6.13975V8.89244H55.9557Z" fill="#1C1D22"/>
<path d="M65.4743 23.7723H64.1501V16.0061C64.1501 16.0061 64.1978 15.9967 64.2168 15.9967C65.2075 15.9967 66.1887 15.9777 67.1795 16.0061C68.0654 16.0345 68.837 16.3467 69.3133 17.1412C69.8372 18.0115 69.8563 18.9291 69.38 19.8277C68.9132 20.6791 68.1416 21.0575 67.1795 21.0953C66.6746 21.1142 66.1602 21.0953 65.6553 21.1048C65.5981 21.1048 65.541 21.1048 65.4743 21.1048V23.7723ZM65.4838 17.1507V19.9223C66.0458 19.9223 66.5888 19.9602 67.1318 19.9223C67.8939 19.8561 68.3702 19.2791 68.3512 18.5223C68.3321 17.7467 67.8558 17.2358 67.0747 17.1885C66.6174 17.1602 66.1602 17.1791 65.7029 17.1696C65.6267 17.1696 65.56 17.1696 65.4838 17.1696V17.1507Z" fill="#1C1D22"/>
<path d="M85.8384 34.8097V27.0435H87.153V29.7868C87.2387 29.7868 87.3054 29.7868 87.3721 29.7868C87.9437 29.7868 88.5247 29.7773 89.0963 29.8152C90.4014 29.9098 91.335 30.8935 91.3731 32.1611C91.4112 33.5233 90.5633 34.5733 89.2583 34.7719C89.1058 34.7908 88.9534 34.8192 88.801 34.8192C87.8389 34.8192 86.8863 34.8192 85.9241 34.8192C85.9051 34.8192 85.8765 34.8192 85.8384 34.8097ZM87.172 33.6746C87.7722 33.6557 88.3533 33.6746 88.9344 33.6084C89.5917 33.5327 90.0108 33.003 90.0299 32.3314C90.0489 31.6314 89.6774 31.1016 89.001 31.0071C88.4104 30.9314 87.8103 30.9692 87.2101 30.9503C87.2101 30.9503 87.1911 30.9598 87.1816 30.9692V33.6557L87.172 33.6746Z" fill="#1C1D22"/>
<path d="M84.3725 6.13705H81.9148V4.95462H88.1544V6.12759H85.7062V12.7208H84.3725V6.12759V6.13705Z" fill="#1C1D22"/>
<path d="M93.4862 34.8104H92.1812V27.0347H93.4862V34.8104Z" fill="#1C1D22"/>
<path d="M8.34219 37.6734C7.97067 37.6734 7.62773 37.6734 7.28479 37.6734C7.1419 37.6734 7.18001 37.5598 7.18001 37.4842C7.18001 36.9071 7.1038 36.3396 6.9609 35.7909C6.86564 35.4031 6.76086 35.0153 6.64654 34.6274C6.60844 34.4855 6.60844 34.3625 6.64654 34.2207C7.07522 32.7261 7.49437 31.2315 7.91352 29.7274C7.95162 29.5855 8.0183 29.4909 8.14214 29.4153C8.54224 29.1788 8.90423 28.895 9.19954 28.5355C9.54248 28.1099 9.68537 27.618 9.63774 27.0788C9.58059 26.445 9.50438 25.8112 9.44722 25.168C9.39006 24.5153 9.41864 23.872 9.57106 23.2288C9.57106 23.2004 9.58059 23.172 9.59011 23.1247C9.28528 23.2666 9.0757 23.4747 8.89471 23.7207C8.58987 24.1369 8.40887 24.6004 8.28503 25.0923C8.13262 25.6882 7.93257 26.2653 7.60868 26.7855C7.18953 27.4666 6.57986 27.9112 5.83682 28.1761C5.62725 28.2518 5.40815 28.3274 5.19857 28.4126C4.70322 28.6207 4.47459 29.0558 4.5889 29.5761C4.5889 29.6139 4.60795 29.6518 4.61748 29.7085C4.42696 29.7747 4.24596 29.8315 4.06497 29.8977C3.88397 29.9545 3.7125 30.0112 3.52198 30.0774C3.0552 28.8477 2.8361 27.6085 3.43624 26.3693C3.54103 26.1518 3.6744 25.9247 3.83634 25.745C4.49364 25.0355 4.88421 24.1937 5.15094 23.2761C5.30336 22.7464 5.4272 22.1977 5.63677 21.6869C6.07498 20.5802 6.81801 19.7288 7.98973 19.3504C9.27575 18.9342 10.5141 19.0383 11.6001 19.918C11.8192 20.0977 11.9431 20.0883 12.1812 19.9842C12.8671 19.672 13.6006 19.5396 14.3627 19.4639C14.2674 19.3031 14.1817 19.1423 14.0769 18.991C14.0579 18.9626 13.9817 18.9626 13.9245 18.9626C13.4291 18.991 12.9338 19.0572 12.4479 19.0477C11.724 19.0288 11.0476 18.8018 10.4094 18.4707C9.75206 18.1396 9.06618 17.9315 8.32314 17.9504C7.9802 17.9599 7.62773 17.9977 7.28479 18.0261C7.17048 18.0261 7.04664 18.045 6.91327 18.0545C6.93233 17.9883 6.94185 17.9504 6.95138 17.9031C7.72299 15.5572 8.97092 13.4761 10.5141 11.5653C10.5999 11.4613 10.6094 11.3761 10.5523 11.2531C10.1617 10.4586 9.79969 9.6545 9.39959 8.86937C9.17096 8.41532 9.15191 7.97072 9.33291 7.50721C9.44722 7.20451 9.60917 6.93018 9.76158 6.61802C9.11381 5.7383 8.44698 4.83965 7.77062 3.91262C8.07546 3.69506 8.37077 3.46803 8.69466 3.241C10.114 5.17073 11.5334 7.091 12.9624 9.02072C13.9054 8.40586 14.9533 8.16937 16.0774 8.16937C16.106 7.83829 16.1441 7.52613 16.1631 7.20451C16.2203 6.3437 16.5061 5.58694 17.1538 4.98154C17.5349 4.63154 17.9731 4.37614 18.4494 4.17749C18.6685 4.09235 18.8209 3.77073 18.7733 3.51533C18.7257 3.26938 18.5161 3.09911 18.2494 3.08965C17.8588 3.08965 17.5063 3.19371 17.192 3.41127C16.7919 3.69506 16.3918 3.99776 15.9917 4.28154C15.4391 4.67884 14.839 4.91532 14.1436 4.88695C13.3053 4.85857 12.6289 4.48019 12.0288 3.92208C11.9621 3.86533 11.905 3.80857 11.8192 3.7329C12.1145 3.45857 12.3908 3.20317 12.648 2.96668C12.9147 3.15587 13.1529 3.36398 13.4196 3.51533C13.9912 3.83695 14.5818 3.80857 15.1343 3.45857C15.4963 3.22209 15.8392 2.95722 16.1822 2.70182C16.7347 2.2856 17.3444 1.99236 18.0493 1.94506C19.3163 1.85047 20.2117 2.92884 19.8307 4.13965C19.7831 4.30046 19.8212 4.37614 19.9355 4.47073C20.6499 5.08559 21.1453 5.83289 21.231 6.78829C21.2691 7.18559 21.2024 7.6018 21.1643 7.9991C21.1358 8.3018 21.0786 8.60451 21.031 8.91667C21.4787 9.03964 21.9264 9.17207 22.3646 9.28558C22.4027 9.29504 22.4599 9.26667 22.498 9.23829C23.965 7.84775 25.6511 7.65856 27.4802 8.35856C27.9088 8.51937 28.3185 8.72748 28.7471 8.91667C28.8424 8.9545 28.8805 9.01126 28.871 9.10586C28.871 9.11531 28.871 9.12477 28.871 9.14369C28.7757 9.63558 28.9948 9.97612 29.3473 10.3072C29.9474 10.8653 30.5095 11.4707 31.081 12.0667C31.7669 12.7761 31.7574 13.9302 31.062 14.6302C30.8905 14.8004 30.7095 14.9707 30.538 15.141C30.4523 15.2261 30.3856 15.2356 30.2713 15.1883C29.6997 14.9707 29.1186 14.7531 28.5376 14.5545C28.4232 14.5167 28.2899 14.5261 28.1756 14.5356C27.8517 14.5545 27.5278 14.5923 27.2039 14.6207C27.223 14.668 27.2515 14.7153 27.2801 14.7721C27.6516 15.4815 28.147 16.1153 28.6519 16.7302C29.2234 17.4207 29.7474 18.1491 30.0617 19.0004C30.176 19.3031 30.2523 19.6248 30.3475 19.9653C31.3192 19.445 32.2908 18.9248 33.3006 18.3761C33.8531 19.0288 34.4247 19.6626 34.9486 20.3247C35.3297 20.8166 35.6631 21.3558 35.9965 21.895C36.2156 22.2545 36.2632 22.6801 36.3013 23.0869C36.3585 23.7396 36.3966 24.3923 36.4442 25.0545C36.4442 25.0828 36.4442 25.1207 36.4347 25.1774H35.3106C35.2916 24.8842 35.2916 24.572 35.263 24.2693C35.2249 23.7869 35.1773 23.3139 35.1201 22.8315C35.0725 22.4153 34.8343 22.0653 34.5866 21.7437C34.0913 21.091 33.5864 20.4572 33.072 19.8045C32.8053 19.9464 32.5766 20.0693 32.348 20.1923C31.7002 20.5423 31.0525 20.8829 30.4142 21.2423C30.338 21.2801 30.2713 21.3747 30.2523 21.4504C30.1189 21.9707 29.9284 22.4626 29.6235 22.9072C29.6045 22.9356 29.5854 22.9734 29.5568 23.0301C30.3761 23.0301 31.1382 22.8599 31.8526 22.5193C32.7576 23.5883 33.6245 24.6761 34.3961 25.8301C34.9296 26.6247 35.1773 27.4855 35.1582 28.4409C35.1582 28.9139 35.1582 29.3869 35.1582 29.8599H34.0246C34.0246 29.7653 34.0246 29.6896 34.0246 29.6139C34.0055 28.9707 34.0055 28.3369 33.9579 27.6936C33.9389 27.4382 33.8436 27.1734 33.7198 26.9464C33.2149 26.0099 32.548 25.1774 31.8907 24.345C31.7955 24.2315 31.7098 24.118 31.605 23.995C31.5573 24.0139 31.5192 24.0328 31.4811 24.0612C30.4904 24.6383 29.4902 25.2058 28.4995 25.7923C27.7755 26.218 27.0039 26.4734 26.1656 26.5396C26.0989 26.5396 26.0417 26.5491 25.975 26.5585C25.975 26.5585 25.9655 26.5585 25.9369 26.5774C26.337 27.1166 26.7371 27.6653 27.1563 28.2234C27.1848 28.1477 27.2039 28.0909 27.2134 28.0342C27.3849 27.4572 27.7564 27.0409 28.3185 26.8234C28.6804 26.6815 29.0424 26.5585 29.4235 26.4261C29.5283 26.795 29.6045 27.1545 29.7188 27.5045C29.8617 27.9301 30.0046 28.3558 30.1856 28.7531C30.538 29.5193 31.1858 29.9828 31.9289 30.3328C32.3671 30.5409 32.8053 30.768 33.253 30.9855C33.091 31.1558 32.9386 31.3166 32.7767 31.4774C32.5766 31.6761 32.3861 31.8747 32.1861 32.0639C32.0717 32.168 32.0527 32.272 32.0527 32.4234C32.1194 33.8328 31.7955 35.1288 30.881 36.245C30.2808 36.9639 29.5187 37.4652 28.6519 37.8058C28.5757 37.8342 28.509 37.8625 28.4137 37.9004C28.4518 38.0423 28.4709 38.1842 28.5185 38.3071C28.5376 38.345 28.6233 38.3828 28.6709 38.3828C29.1949 38.3828 29.7188 38.3828 30.2427 38.3828H30.4428V39.499C30.3951 39.499 30.338 39.5085 30.2808 39.5085C28.8614 39.5085 27.4516 39.5085 26.0322 39.5085C25.8988 39.5085 25.8417 39.4612 25.794 39.3477C25.6702 39.0261 25.5368 38.7044 25.413 38.3828C25.3749 38.2882 25.3177 38.2409 25.2129 38.2409C23.8221 38.2409 22.5742 37.7585 21.3644 37.1152C20.8881 36.8598 20.3641 36.6801 19.8497 36.5004C19.6973 36.4436 19.4782 36.4815 19.3258 36.5382C18.9829 36.6707 18.859 36.9639 18.9448 37.3612C19.021 37.7206 19.1924 38.0328 19.4496 38.2882C19.4973 38.3355 19.583 38.3639 19.6592 38.3639C20.1069 38.3639 20.5451 38.3639 21.0119 38.3639V39.4801C20.9548 39.4801 20.8976 39.4896 20.8309 39.4896C19.4877 39.4896 18.135 39.4896 16.7919 39.4896C16.6966 39.4896 16.6204 39.4896 16.5632 39.3855C16.0964 38.6004 15.6201 37.8247 15.1438 37.0301C15.2391 36.945 15.3344 36.8504 15.4296 36.7652C15.7059 36.4909 15.925 36.1882 15.944 35.7815C15.9536 35.4977 15.8392 35.2612 15.6106 35.0909C15.2772 34.845 14.8866 34.8166 14.477 34.8734C14.5627 35.0625 14.6675 35.2234 14.7342 35.4031C15.201 36.6517 14.477 37.995 13.1338 38.3828C11.5049 38.8558 9.90447 37.8531 9.64727 36.1504C9.39006 34.4666 10.0378 33.1423 11.3524 32.1017C12.1431 31.4869 13.0576 31.1653 14.0483 31.0139C15.0486 30.8626 16.0488 30.872 17.0395 31.0896C17.0681 31.0896 17.0967 31.099 17.1634 31.118C16.7538 30.3896 16.3632 29.6896 15.9726 28.9991C16.306 28.9991 16.6204 28.9991 16.9443 28.9991C18.4208 28.9991 19.8974 29.018 21.3739 29.018C22.1741 29.018 22.9743 28.9991 23.765 29.018C24.689 29.0369 25.413 29.8693 25.3939 30.8436C25.3844 31.3734 25.1939 31.8369 24.8891 32.2626C24.4509 32.868 24.6128 33.5774 25.2701 33.9369C25.9083 34.2869 26.88 34.1639 27.4135 33.6815C27.8707 33.2653 27.9279 32.6977 27.5468 32.2058C27.042 31.5531 26.5085 30.9099 25.9941 30.2666C25.956 30.2193 25.9179 30.1815 25.8702 30.1153C26.1274 29.9166 26.3942 29.718 26.6704 29.5004C26.0417 28.6396 25.4035 27.7882 24.7747 26.9274C24.5556 27.022 24.3461 27.1166 24.127 27.1923C22.5361 27.7788 20.8976 28.1382 19.202 28.1382C18.0493 28.1382 16.8966 28.0815 15.7535 28.0436C15.6392 28.0436 15.5916 28.0909 15.5344 28.1666C15.02 28.8761 14.4389 29.5193 13.7149 30.0112C12.7147 30.6923 11.6096 31.1558 10.4379 31.468C9.84732 31.6193 9.24717 31.7707 8.64703 31.922C8.53271 31.9504 8.47556 31.9977 8.43745 32.1207C8.24693 32.8207 8.03736 33.5112 7.84683 34.2112C7.81826 34.3247 7.81826 34.4571 7.84683 34.5707C8.02783 35.2517 8.22788 35.9328 8.29456 36.6423C8.32314 36.9639 8.33267 37.2855 8.36124 37.6355L8.34219 37.6734ZM25.8607 12.5396C25.9274 12.6058 25.9655 12.6626 26.0131 12.7099C26.2132 12.8991 26.3847 13.1167 26.6133 13.2585C27.042 13.5329 27.5183 13.5423 28.0041 13.4194C28.2232 13.3626 28.4232 13.3626 28.6233 13.4194C29.0805 13.5612 29.5473 13.7126 30.0046 13.8734C30.1284 13.9207 30.2046 13.8923 30.2808 13.7883C30.4999 13.4856 30.4714 13.0977 30.1951 12.814C29.4902 12.095 28.7852 11.3572 28.0612 10.6572C27.8136 10.4113 27.6421 10.1842 27.7088 9.82477C27.7088 9.77747 27.6707 9.7018 27.6326 9.68288C27.1182 9.45585 26.6133 9.21937 26.0512 9.15315C25.051 9.03964 24.1651 9.25721 23.4125 9.94775C22.7362 10.5721 22.3646 11.3667 22.1646 12.2464C21.7835 13.9491 21.8597 15.6518 22.2503 17.345C22.317 17.6477 22.4027 17.941 22.4885 18.2531C22.1265 18.3761 21.774 18.4896 21.4215 18.6031C21.393 18.5369 21.3739 18.4991 21.3644 18.4518C21.0119 17.2977 20.8214 16.1153 20.8024 14.9139C20.7833 13.8545 20.8214 12.8045 21.1167 11.7829C21.2596 11.2815 21.4692 10.7991 21.6597 10.2977C21.031 10.118 20.3737 9.93829 19.7164 9.7491C19.8021 9.24775 19.8974 8.75586 19.9736 8.27342C20.0307 7.86667 20.1069 7.46937 20.1069 7.06262C20.0974 6.38154 19.7259 5.85181 19.2401 5.3883C19.0686 5.22749 18.9257 5.19911 18.7066 5.30316C17.9445 5.68154 17.4015 6.22073 17.3348 7.10045C17.2777 7.81937 17.2396 8.54775 17.1824 9.26667C17.1824 9.32342 17.1634 9.38018 17.1538 9.45585C15.9155 9.17207 14.7533 9.27612 13.6482 9.92883C13.6959 9.99504 13.734 10.0518 13.7816 10.1086C17.4206 15.0464 21.0691 19.9842 24.7081 24.922C24.87 25.1396 25.0701 25.2815 25.3273 25.3477C25.8607 25.4991 26.3751 25.4045 26.8895 25.2626C27.4992 25.1018 28.0041 24.7612 28.5376 24.4585C28.6995 24.3639 28.8614 24.2693 29.0139 24.1747C28.4232 24.1085 27.9279 23.8437 27.4039 23.5977C27.6993 23.3139 27.9946 23.0585 28.2613 22.7842C29.2044 21.7815 29.4806 20.6369 28.9758 19.341C28.709 18.6693 28.2899 18.0923 27.8326 17.5342C27.2515 16.8342 26.6895 16.1153 26.2799 15.3112C26.0227 14.8194 25.775 14.3275 25.5464 13.8167C25.4892 13.6842 25.4511 13.495 25.4987 13.3626C25.594 13.0788 25.7559 12.814 25.8988 12.5207L25.8607 12.5396ZM17.3063 21.545C17.2396 21.5261 17.1824 21.5261 17.1348 21.4977C16.7252 21.3085 16.3251 21.1193 15.9155 20.9396C15.763 20.8734 15.6106 20.7883 15.4487 20.741C14.8866 20.5896 14.3151 20.5707 13.7435 20.7031C13.2481 20.8166 12.7433 20.9018 12.3241 21.2045C11.2096 22.0085 10.5904 23.0869 10.5904 24.4585C10.5904 25.1112 10.6951 25.7639 10.7523 26.4166C10.8095 27.0031 10.8571 27.5896 10.6761 28.1666C10.4189 29.0085 9.86637 29.6234 9.15191 30.1153C8.92329 30.2761 8.91376 30.4936 8.83755 30.7301C9.14239 30.6545 9.40912 30.5882 9.67585 30.522C10.4856 30.3234 11.2762 30.049 12.0383 29.6896C13.2862 29.1126 14.2008 28.1855 14.9152 27.0409C14.9724 26.9464 15.02 26.8801 15.1629 26.8896C16.0869 26.9558 17.0205 27.022 17.9445 27.0504C19.6687 27.1166 21.3644 26.9369 23.0029 26.4072C23.3553 26.2937 23.7078 26.1612 24.0793 26.0288C19.5449 19.8802 15.0295 13.7694 10.5141 7.6491C10.3713 7.91397 10.3046 8.13153 10.4475 8.42478C10.9523 9.42748 11.4191 10.4396 11.9145 11.4518C11.9716 11.5653 11.9621 11.641 11.8764 11.7356C10.6856 13.0883 9.6949 14.5734 8.88518 16.191C8.78992 16.3896 8.69466 16.5977 8.5994 16.7964C8.62798 16.8153 8.6375 16.8248 8.64703 16.8248C9.4758 16.8437 10.2474 17.1085 10.9809 17.4775C11.8192 17.8937 12.6956 18.0166 13.6197 17.8558C13.9912 17.7896 14.3722 17.7329 14.7628 17.6761C15.2391 19.0856 16.1917 20.0126 17.6111 20.4572C17.5063 20.8166 17.4111 21.1761 17.3158 21.5356L17.3063 21.545ZM19.3163 33.5112C19.1924 33.4355 19.0972 33.3788 19.0019 33.322C18.5161 33.0477 18.0493 32.7261 17.5444 32.5085C16.5251 32.0734 15.4582 32.0355 14.3722 32.1774C13.5149 32.2909 12.7147 32.5463 12.0288 33.0855C11.0762 33.8328 10.5904 34.7882 10.7714 36.0085C10.8857 36.8125 11.4382 37.3328 12.2098 37.4179C12.8861 37.4842 13.5149 37.1058 13.6959 36.5193C13.8007 36.1598 13.6863 35.7152 13.4196 35.5355C13.4196 35.5639 13.4196 35.5828 13.4196 35.6017C13.4577 35.895 13.3434 36.122 13.0957 36.2734C12.8385 36.4247 12.5813 36.4058 12.3432 36.2355C12.105 36.0653 12.0288 35.8193 12.0955 35.545C12.2003 35.1004 12.4194 34.7031 12.7909 34.4288C13.5816 33.8328 14.477 33.6625 15.4296 33.8612C16.2679 34.0315 16.8395 34.5328 17.0586 35.3747C17.2205 36.018 17.0395 36.6044 16.6775 37.1436C16.6299 37.2098 16.5918 37.2571 16.649 37.3517C16.8585 37.6734 17.0491 38.0139 17.2491 38.3355C17.2682 38.3733 17.3063 38.4206 17.3444 38.4206C17.592 38.4206 17.8493 38.4206 18.0969 38.4206C18.0969 38.3923 18.0969 38.3828 18.0969 38.3828C18.0684 38.3261 18.0493 38.2693 18.0207 38.2125C17.8016 37.7017 17.7064 37.172 17.8778 36.6234C18.1446 35.7436 19.1067 35.2234 20.0784 35.422C20.7357 35.5544 21.3263 35.8666 21.9264 36.1504C22.4789 36.4152 23.0219 36.7179 23.6126 36.8882C25.0319 37.295 26.4799 37.3139 27.9088 36.8882C28.871 36.6044 29.6712 36.0747 30.2332 35.2328C30.7762 34.4288 30.9667 33.5301 30.9 32.5842C30.8715 32.1112 30.8429 31.6761 31.3763 31.3734C29.8236 30.7112 29.052 29.5004 28.6423 27.9774C28.3947 28.1288 28.2803 28.3274 28.2899 28.5828C28.2899 28.9707 28.2232 29.3301 28.1184 29.699C28.0517 29.9261 27.9565 30.1153 27.7374 30.2288C27.6707 30.2666 27.6135 30.3234 27.5373 30.3707C27.5754 30.418 27.604 30.4653 27.6326 30.5031C27.9184 30.872 28.2137 31.2315 28.4995 31.6004C29.1758 32.499 29.1282 33.6436 28.347 34.4382C27.4802 35.3274 26.4132 35.5544 25.251 35.2044C23.3649 34.6463 23.1362 32.7071 23.9936 31.6288C24.1079 31.4963 24.1746 31.3166 24.2222 31.1463C24.3651 30.6828 24.1651 30.172 23.5078 30.2004C23.0315 30.2288 22.5647 30.2193 22.0884 30.2288C20.8976 30.2288 19.7068 30.2288 18.5161 30.2382C18.3446 30.2382 18.1636 30.2382 17.954 30.2382C18.5542 31.2788 18.9448 32.3855 19.3449 33.5207L19.3163 33.5112ZM10.9238 20.8356C10.7237 20.6369 10.457 20.4856 10.1712 20.4004C9.05665 20.0504 7.52295 20.2964 6.79896 21.9045C6.57986 22.3774 6.45602 22.8977 6.31313 23.3991C6.00829 24.4396 5.62725 25.4518 4.88421 26.2747C4.79848 26.3693 4.71274 26.4734 4.63653 26.5774C4.41743 26.8896 4.31264 27.2396 4.25549 27.5896C4.67464 27.4193 5.08426 27.2585 5.49388 27.0977C6.11308 26.8612 6.57033 26.4545 6.82754 25.8585C6.9609 25.5369 7.07522 25.2058 7.17048 24.8653C7.31337 24.3545 7.48484 23.8626 7.75157 23.4085C8.27551 22.5099 9.02807 21.9518 10.0855 21.8288C10.1331 21.8288 10.1903 21.791 10.2284 21.7531C10.4665 21.4599 10.6951 21.1572 10.9333 20.845L10.9238 20.8356ZM27.2801 38.2031C27.042 38.2315 26.8229 38.2598 26.6038 38.2882C26.6609 38.4206 26.9562 38.4585 27.3277 38.3923C27.3087 38.3355 27.2992 38.2788 27.2801 38.2031Z" fill="#1C1D22"/>
</svg>
