<svg width="245" height="35" viewBox="0 0 245 35" fill="none" xmlns="http://www.w3.org/2000/svg">
<mask id="mask0_0_19497" style="mask-type:luminance" maskUnits="userSpaceOnUse" x="0" y="0" width="245" height="35">
<path d="M244.607 0.69281H0.929199V34.8532H244.607V0.69281Z" fill="white"/>
</mask>
<g mask="url(#mask0_0_19497)">
<path d="M54.6343 4.19598V6.34453H58.8881V14.8044H61.2513V6.34453H65.5051V4.19598H54.6343Z" fill="black"/>
<path d="M67.4858 4.19598V14.8044H77.2412V12.5983H69.849V10.4881H76.2582V8.32042H69.849V6.36371H76.9765V4.19598H67.4858Z" fill="black"/>
<path d="M79.2339 4.19598L82.7507 9.2796L79.0259 14.8044H81.7672L84.6224 10.4306H85.359L88.2142 14.8044H90.9556L87.2499 9.22202L90.7472 4.19598H88.0627L85.3213 8.28205H84.66L81.9187 4.19598H79.2339Z" fill="black"/>
<path d="M92.8577 4.19611V14.8045H95.2207V10.3924H101.119V14.8045H103.482V4.19611H101.119V8.24381H95.2207V4.19611H92.8577Z" fill="black"/>
<path d="M108.059 9.50965C108.059 7.32275 109.59 5.9991 111.556 5.9991C113.522 5.9991 115.053 7.32275 115.053 9.50965C115.053 11.6966 113.522 13.0202 111.556 13.0202C109.59 13.0202 108.059 11.6966 108.059 9.50965ZM117.417 9.50965C117.417 6.17175 114.732 3.94647 111.556 3.94647C108.38 3.94647 105.695 6.17175 105.695 9.50965C105.695 12.8476 108.38 15.0728 111.556 15.0728C114.732 15.0728 117.417 12.8476 117.417 9.50965Z" fill="black"/>
<path d="M122.188 4.19598L120.79 11.7926C120.676 12.3681 120.317 12.6175 119.768 12.6175H118.634V14.8044H119.882C121.602 14.8044 122.756 13.9795 123.096 12.0995L124.155 6.34453H128.163V14.8044H130.526V4.19598H122.188Z" fill="black"/>
<path d="M135.092 9.50978C135.092 7.32288 136.623 5.99922 138.589 5.99922C140.555 5.99922 142.087 7.32288 142.087 9.50978C142.087 11.6967 140.555 13.0203 138.589 13.0203C136.623 13.0203 135.092 11.6967 135.092 9.50978ZM144.45 9.50978C144.45 6.17188 141.766 3.94659 138.589 3.94659C135.413 3.94659 132.729 6.17188 132.729 9.50978C132.729 12.8477 135.413 15.073 138.589 15.073C141.766 15.073 144.45 12.8477 144.45 9.50978Z" fill="black"/>
<path d="M146.666 4.19611V14.8045H149.029V6.36383H156.308V4.19611H146.666Z" fill="black"/>
<path d="M158.27 4.19611V14.8045H160.577L166.778 7.47647V14.8045H169.122V4.19611H166.835L160.615 11.5625V4.19611H158.27Z" fill="black"/>
<path d="M171.483 4.19598V8.35879C171.483 10.8526 173.146 12.5216 175.605 12.5216H179.329V14.8044H181.692V4.19598H179.329V10.3539H175.964C174.603 10.3539 173.846 9.62487 173.846 8.14777V4.19598H171.483Z" fill="black"/>
<path d="M184.103 4.19611V14.8045H193.859V12.5984H186.467V10.4883H192.876V8.32054H186.467V6.36383H193.594V4.19611H184.103Z" fill="black"/>
<path d="M206.858 6.78575C205.78 4.92495 204.003 3.94659 201.564 3.94659C198.275 3.94659 195.722 6.07596 195.722 9.50978C195.722 12.9436 198.218 15.073 201.564 15.073C204.003 15.073 205.78 14.0946 206.858 12.2338L205.024 11.1596C204.23 12.3106 203.19 12.9436 201.526 12.9436C199.485 12.9436 198.067 11.5624 198.067 9.50978C198.067 7.41879 199.428 6.07596 201.526 6.07596C203.19 6.07596 204.23 6.70901 205.024 7.86002L206.858 6.78575Z" fill="black"/>
<path d="M208.995 4.19611V14.8045H211.339V10.2964H214.44L217.181 14.8045H219.979L216.387 9.10705L219.733 4.19611H217.011L214.384 8.10952H211.339V4.19611H208.995Z" fill="black"/>
<path d="M221.837 4.19611V14.8045H224.144L230.345 7.47647V14.8045H232.69V4.19611H230.402L224.182 11.5625V4.19611H221.837Z" fill="black"/>
<path d="M235.049 4.19598V14.8044H244.804V12.5983H237.412V10.4881H243.822V8.32042H237.412V6.36371H244.54V4.19598H235.049Z" fill="black"/>
<path d="M55.0142 20.8217V31.4302H57.3585V26.9221H60.4591L63.2004 31.4302H65.9984L62.4063 25.7327L65.7526 20.8217H63.0302L60.4023 24.7352H57.3585V20.8217H55.0142Z" fill="black"/>
<path d="M69.311 26.1354C69.311 23.9485 70.8423 22.6248 72.8085 22.6248C74.7748 22.6248 76.3061 23.9485 76.3061 26.1354C76.3061 28.3223 74.7748 29.646 72.8085 29.646C70.8423 29.646 69.311 28.3223 69.311 26.1354ZM78.6694 26.1354C78.6694 22.7975 75.9847 20.5722 72.8085 20.5722C69.6324 20.5722 66.9478 22.7975 66.9478 26.1354C66.9478 29.4733 69.6324 31.6986 72.8085 31.6986C75.9847 31.6986 78.6694 29.4733 78.6694 26.1354Z" fill="black"/>
<path d="M80.8833 20.8217V31.4302H83.2466V27.018H89.1453V31.4302H91.5084V20.8217H89.1453V24.8695H83.2466V20.8217H80.8833Z" fill="black"/>
<path d="M93.8726 20.8217V31.4302H96.2163V26.9221H99.3176L102.059 31.4302H104.856L101.265 25.7327L104.611 20.8217H101.888L99.2607 24.7352H96.2163V20.8217H93.8726Z" fill="black"/>
<path d="M105.798 20.8217L107.481 25.8095C107.972 27.2674 108.899 27.9964 110.449 27.9964H112.812L112.585 28.7253C112.434 29.1665 112.037 29.3967 111.621 29.3967H108.786V31.4302H111.735C113.115 31.4302 114.287 30.5094 114.722 29.2241L117.501 20.8217H115.1L113.455 25.867H110.563C110.184 25.867 109.882 25.6752 109.749 25.2915L108.237 20.8217H105.798Z" fill="black"/>
<path d="M119.374 20.8217V31.4302H121.737V29.0706H125.537C127.994 29.0706 129.848 27.4784 129.848 24.9846C129.848 22.4907 127.994 20.8217 125.537 20.8217H119.374ZM121.737 23.0086H125.442C126.653 23.0086 127.485 23.7568 127.485 24.9846C127.485 26.2123 126.653 26.8837 125.442 26.8837H121.737V23.0086Z" fill="black"/>
<path d="M142.794 23.4113C141.716 21.5506 139.939 20.5722 137.5 20.5722C134.211 20.5722 131.658 22.7016 131.658 26.1354C131.658 29.5692 134.154 31.6986 137.5 31.6986C139.939 31.6986 141.716 30.7203 142.794 28.8594L140.96 27.7852C140.166 28.9362 139.126 29.5692 137.462 29.5692C135.42 29.5692 134.002 28.188 134.002 26.1354C134.002 24.0444 135.363 22.7016 137.462 22.7016C139.126 22.7016 140.166 23.3346 140.96 24.4857L142.794 23.4113Z" fill="black"/>
<path d="M156.16 20.8217V31.4302H158.523V20.8217H156.16ZM144.93 20.8217V31.4302H150.904C153.362 31.4302 155.214 29.7612 155.214 27.2674C155.214 24.7735 153.362 23.2389 150.904 23.2389H147.293V20.8217H144.93ZM147.293 25.3682H150.733C152.133 25.3682 152.851 25.9629 152.851 27.2674C152.851 28.5719 152.133 29.2433 150.733 29.2433H147.293V25.3682Z" fill="black"/>
<path opacity="0.5" d="M34.8821 10.7492H42.6111L34.8821 18.5917V10.7492Z" fill="black"/>
<path opacity="0.5" fill-rule="evenodd" clip-rule="evenodd" d="M24.1164 1.50604H0.929199V9.34862H8.65821V17.1911H16.3872V9.34862H24.1164V1.50604Z" fill="black"/>
<path d="M19.4242 26.4343L8.65869 17.1913V25.0339L19.4242 34.2769V26.4343Z" fill="black"/>
<path d="M27.1538 18.5919L16.3884 9.34885V17.1914L27.1538 26.4345V18.5919Z" fill="black"/>
<path d="M34.8809 10.749L24.1155 1.50604V9.34862L34.8809 18.5916V10.749Z" fill="black"/>
<path opacity="0.5" d="M27.1529 18.5915H34.882L31.2935 22.5128L42.6114 34.2766L19.4253 34.2766V26.434H27.1529V18.5915Z" fill="black"/>
</g>
</svg>
