<svg width="24" height="25" viewBox="0 0 24 25" fill="none" xmlns="http://www.w3.org/2000/svg">
<path d="M11 15.5H13C13.5304 15.5 14.0391 15.2893 14.4142 14.9142C14.7893 14.5391 15 14.0304 15 13.5C15 12.9696 14.7893 12.4609 14.4142 12.0858C14.0391 11.7107 13.5304 11.5 13 11.5H10C9.4 11.5 8.9 11.7 8.6 12.1L3 17.5" stroke="#00AE46" stroke-width="1.5" stroke-linecap="round" stroke-linejoin="round"/>
<path d="M7 21.5L8.6 20.1C8.9 19.7 9.4 19.5 10 19.5H14C15.1 19.5 16.1 19.1 16.8 18.3L21.4 13.9C21.7859 13.5354 22.0111 13.0323 22.0261 12.5016C22.0411 11.9709 21.8447 11.4559 21.48 11.07C21.1153 10.6841 20.6123 10.4589 20.0816 10.4439C19.5508 10.4289 19.0359 10.6254 18.65 10.99L14.45 14.89" stroke="#00AE46" stroke-width="1.5" stroke-linecap="round" stroke-linejoin="round"/>
<path d="M2 16.5L8 22.5" stroke="#00AE46" stroke-width="1.5" stroke-linecap="round" stroke-linejoin="round"/>
<path d="M15.9996 12.4C17.6012 12.4 18.8996 11.1016 18.8996 9.49998C18.8996 7.89835 17.6012 6.59998 15.9996 6.59998C14.398 6.59998 13.0996 7.89835 13.0996 9.49998C13.0996 11.1016 14.398 12.4 15.9996 12.4Z" stroke="#00AE46" stroke-width="1.5" stroke-linecap="round" stroke-linejoin="round"/>
<path d="M6 8.5C7.65685 8.5 9 7.15685 9 5.5C9 3.84315 7.65685 2.5 6 2.5C4.34315 2.5 3 3.84315 3 5.5C3 7.15685 4.34315 8.5 6 8.5Z" stroke="#00AE46" stroke-width="1.5" stroke-linecap="round" stroke-linejoin="round"/>
</svg>
