<svg width="25" height="25" viewBox="0 0 25 25" fill="none" xmlns="http://www.w3.org/2000/svg">
<path d="M6.49444 1.51481C6.39109 1.55239 5.32002 2.58118 3.22015 4.66226C-0.134003 7.98353 -0.0494444 7.88957 0.0210209 8.29827C0.0492071 8.4533 0.180742 8.60362 1.01693 9.43511L1.97996 10.3934L1.99875 11.2202C2.01754 12.2678 2.14908 13.0007 2.47791 13.8791C2.60945 14.2362 2.9101 14.8562 3.07922 15.1193L3.18257 15.2884L2.9054 15.5938C2.23363 16.3313 2.08331 17.2521 2.4967 18.0789C2.65643 18.3936 3.04164 18.8023 3.3141 18.9385C3.41745 18.9902 3.50671 19.0372 3.5161 19.0466C3.5208 19.0513 3.48322 19.1499 3.43624 19.2627C2.9054 20.4606 3.64764 21.8981 4.9395 22.1753C5.28244 22.2504 5.80858 22.2034 6.14211 22.0672L6.42397 21.9545L6.52732 22.1518C6.95951 22.9598 8.05877 23.3967 8.96543 23.1195C9.27078 23.0208 9.67008 22.7766 9.88617 22.5511L10.0224 22.4101L10.37 22.739C10.9807 23.3168 11.38 23.5 12.0283 23.5C12.6766 23.5 13.0759 23.3168 13.6866 22.739L14.0342 22.4054L14.1235 22.5088C14.3208 22.7296 14.7765 23.0208 15.0677 23.1101C16.0026 23.3967 17.0924 22.9739 17.5293 22.1471L17.6374 21.9451L17.8441 22.0343C19.1124 22.5793 20.5217 21.8041 20.7707 20.4371C20.8318 20.0707 20.7754 19.615 20.6204 19.2627C20.5734 19.1499 20.5358 19.0513 20.5405 19.0466C20.5499 19.0372 20.6392 18.9902 20.7425 18.9385C21.0197 18.7976 21.4049 18.3889 21.5693 18.0601C21.9733 17.2333 21.823 16.3313 21.1512 15.5938L20.8741 15.2931L21.0103 15.0582C21.4284 14.3489 21.7384 13.5362 21.9264 12.6436C22.0297 12.1504 22.0532 11.9061 22.0626 11.2202L22.072 10.3934L23.0397 9.43511C23.8759 8.60362 24.0074 8.4533 24.0356 8.29827C24.1061 7.88957 24.1906 7.98353 20.8365 4.66226C17.4307 1.28462 17.5387 1.37857 17.13 1.50072C16.975 1.54769 16.7589 1.7356 16.0073 2.48253L15.0771 3.40328L14.3396 3.40798C13.5739 3.41267 13.1933 3.45495 12.4605 3.62407L12.0283 3.72742L11.5914 3.62407C10.8633 3.45495 10.4828 3.41267 9.71706 3.40798L8.97952 3.40328L8.07286 2.50132C7.02058 1.45374 6.88905 1.37388 6.49444 1.51481ZM7.53733 3.98579C8.46747 4.90184 8.46747 4.90184 9.12045 4.83138C9.35533 4.80319 9.60901 4.7891 9.69357 4.79849L9.84389 4.81259L9.49157 5.08975C9.29896 5.24477 8.13393 6.37222 6.90314 7.60301C4.5496 9.95656 4.47443 10.0458 4.32411 10.6142C4.24425 10.9055 4.25834 11.4457 4.34759 11.7511C4.65294 12.8034 5.80858 13.4516 6.88435 13.1745C7.42458 13.0335 7.56082 12.9208 9.17212 11.3283L10.7036 9.80623L10.9338 9.8767C11.5586 10.0787 12.6343 10.1398 13.2215 10.0082L13.4987 9.94716L16.8998 13.3436C20.5077 16.9561 20.4419 16.881 20.3714 17.2521C20.2916 17.689 19.7607 17.9426 19.3661 17.7359C19.2956 17.6984 18.0977 16.5239 16.7025 15.124C15.3073 13.7241 14.1094 12.5497 14.0389 12.5121C13.9685 12.4745 13.8228 12.4463 13.7101 12.4463C13.1933 12.4463 12.8598 12.9866 13.09 13.4469C13.1323 13.5315 14.5463 14.9831 16.2375 16.6743C17.938 18.3795 19.3285 19.8123 19.3567 19.8828C19.4272 20.0754 19.4178 20.1881 19.3097 20.4089C19.1547 20.7331 18.7695 20.8834 18.4313 20.7612C18.3608 20.7331 16.9092 19.3238 15.1758 17.5903C12.639 15.0629 12.0236 14.471 11.8968 14.4429C11.3706 14.3348 10.9056 14.7999 11.0371 15.2978C11.0794 15.4435 11.5304 15.9179 13.6067 17.9896C14.9926 19.3707 16.1858 20.5968 16.2609 20.7096C16.6509 21.3062 16.0918 21.9967 15.4248 21.7431C15.3543 21.7196 14.1188 20.5264 12.686 19.0936C9.87208 16.2843 9.93785 16.3407 9.55264 16.4488C9.19561 16.5427 8.97482 16.8997 9.04059 17.2709C9.07347 17.4306 9.30366 17.6749 11.0559 19.4365L13.0383 21.4283L12.7095 21.729C12.5169 21.9075 12.3102 22.0531 12.2068 22.086C11.8122 22.2034 11.9391 22.3115 8.29366 18.6802C4.91132 15.3072 4.61067 14.9784 4.20197 14.2502C3.59127 13.1557 3.34699 12.0752 3.40806 10.727C3.43155 10.0975 3.42685 9.94246 3.37048 9.83442C3.33289 9.75925 2.94768 9.35056 2.52019 8.92776C2.0927 8.50497 1.74038 8.14795 1.74038 8.13855C1.74038 8.11037 6.68705 3.19658 6.71523 3.19188C6.72932 3.19188 7.10044 3.54891 7.53733 3.98579ZM19.8218 5.63938C21.1794 6.98762 22.2975 8.10567 22.3069 8.12446C22.3116 8.14325 21.9686 8.50497 21.5364 8.92776C21.109 9.35056 20.7331 9.74046 20.705 9.79214C20.6674 9.85321 20.6486 10.2243 20.6486 10.9196C20.6439 11.7981 20.6298 12.0188 20.5452 12.3994C20.4231 12.9302 20.2023 13.5785 19.9956 13.9825L19.85 14.2784L17.3884 11.8168L14.9315 9.35995L15.157 9.20023C15.4623 8.99353 15.8757 8.60362 15.9556 8.4439C16.1012 8.16674 16.012 7.81911 15.7395 7.58892C15.6221 7.49497 15.5422 7.46678 15.359 7.46678C15.0724 7.46678 15.0208 7.49497 14.6027 7.8426C14.2362 8.15264 13.6584 8.4533 13.2027 8.57544C12.996 8.62711 12.7189 8.6553 12.3572 8.6553C11.784 8.6553 11.5163 8.60362 10.8962 8.37813C10.3043 8.15734 10.4076 8.08688 8.43459 10.0505C7.50444 10.976 6.69644 11.7558 6.64007 11.784C6.3723 11.9202 5.98709 11.7934 5.771 11.5021C5.65825 11.3471 5.64416 11.0182 5.74751 10.8256C5.78509 10.7458 6.83267 9.67939 8.06817 8.4486C9.66538 6.86078 10.4217 6.14203 10.6942 5.95412C11.9203 5.10384 13.4376 4.69514 14.861 4.82668C15.204 4.85956 15.4201 4.85956 15.5422 4.82668C15.6737 4.7891 15.8992 4.59649 16.5146 3.98579C16.9562 3.54891 17.3226 3.19188 17.332 3.19188C17.3414 3.19188 18.4595 4.29584 19.8218 5.63938ZM4.93481 17.548C4.77039 17.7218 4.59187 17.8017 4.37108 17.8017C3.7322 17.8017 3.45034 17.1064 3.88722 16.6226L4.06104 16.4347L4.55429 16.9279L5.04755 17.4212L4.93481 17.548ZM6.5696 18.9432L7.04877 19.4224L6.40049 20.066C6.04816 20.4183 5.69583 20.7331 5.62537 20.7612C5.28713 20.8834 4.90192 20.7331 4.7469 20.4089C4.55429 20.0096 4.61536 19.8922 5.39518 19.103C5.74751 18.7506 6.04816 18.4594 6.06225 18.4594C6.07635 18.4594 6.30184 18.6755 6.5696 18.9432ZM8.55203 20.9257L9.04059 21.4142L8.93254 21.5317C8.58022 21.9075 8.0071 21.8699 7.75342 21.4565C7.65007 21.2874 7.63128 21.0008 7.71114 20.8411C7.791 20.6908 7.98831 20.4324 8.02589 20.4324C8.04468 20.4324 8.27956 20.6532 8.55203 20.9257Z" fill="#00AE46"/>
</svg>
