<svg width="24" height="25" viewBox="0 0 24 25" fill="none" xmlns="http://www.w3.org/2000/svg">
<path fill-rule="evenodd" clip-rule="evenodd" d="M18.2617 19.9386H23.9975V5.5H18.2617V19.9386Z" fill="#1CB75A"/>
<path fill-rule="evenodd" clip-rule="evenodd" d="M9.12891 18.64H14.865V5.5H9.12891V18.64Z" fill="#1CB75A"/>
<path d="M11.4049 15.1237L12.3631 14.798C12.3631 14.798 12.3632 14.798 12.3632 14.798C16.1185 13.5223 18.728 10.1788 19.0541 6.32031H23.153C22.7379 13.3041 17.0482 18.9237 9.95607 19.3301V16.4171V15.6162L11.4049 15.1237ZM9.1509 16.0211L8.62856 16.4235C6.35707 18.1732 3.6751 19.1696 0.824219 19.3305V15.2987C5.65241 14.9066 9.52166 11.0966 9.92243 6.32031H14.0213C13.8674 8.92515 12.9798 11.4063 11.4293 13.5436L10.8393 14.3567L9.95607 15.5739V15.4007L9.1509 16.0211Z" fill="#D9F3E3" stroke="#1CB75A"/>
<mask id="path-4-inside-1_0_15985" fill="white">
<path fill-rule="evenodd" clip-rule="evenodd" d="M24 5.5H18.2644C18.2644 9.44515 15.6807 12.8041 12.0961 14.0216C13.8403 11.6179 14.8681 8.67527 14.8681 5.5H9.13234C9.13234 10.4689 5.03551 14.5116 0 14.5116V20.1716C3.43971 20.1716 6.61013 19.0126 9.13185 17.0702V20.1716C17.3304 20.1716 24 13.5899 24 5.5ZM23.3385 6.13837C23.0089 13.3695 17.1068 19.1936 9.77878 19.5188V17.0702V15.762L8.73383 16.5668C6.38516 18.376 3.60144 19.39 0.646926 19.5192V15.1291C5.5254 14.8134 9.43817 10.9523 9.75808 6.13837H14.2067C14.0838 8.84843 13.1785 11.4332 11.5701 13.65L10.3901 15.2764L12.3066 14.6252C16.0515 13.3533 18.6316 9.99144 18.8899 6.13837H23.3385Z"/>
</mask>
<path d="M24 5.5H25.5V4H24V5.5ZM18.2644 5.5V4H16.7644V5.5H18.2644ZM12.0961 14.0216L10.882 13.1407L8.11108 16.9593L12.5785 15.442L12.0961 14.0216ZM14.8681 5.5H16.3681V4H14.8681V5.5ZM9.13234 5.5V4H7.63234V5.5H9.13234ZM0 14.5116V13.0116H-1.5V14.5116H0ZM0 20.1716H-1.5V21.6716H0V20.1716ZM9.13185 17.0702H10.6319V14.0214L8.21651 15.8819L9.13185 17.0702ZM9.13185 20.1716H7.63185V21.6716H9.13185V20.1716ZM23.3385 6.13837L24.837 6.20667L24.9084 4.63837H23.3385V6.13837ZM9.77878 19.5188H8.27878V21.0869L9.84529 21.0174L9.77878 19.5188ZM9.77878 15.762H11.2788V12.7134L8.86348 14.5736L9.77878 15.762ZM8.73383 16.5668L7.81853 15.3785L7.81848 15.3785L8.73383 16.5668ZM0.646926 19.5192H-0.853074V21.0861L0.712413 21.0177L0.646926 19.5192ZM0.646926 15.1291L0.550067 13.6322L-0.853074 13.723V15.1291H0.646926ZM9.75808 6.13837V4.63837H8.35445L8.26138 6.03891L9.75808 6.13837ZM14.2067 6.13837L15.7051 6.20634L15.7762 4.63837H14.2067V6.13837ZM11.5701 13.65L10.356 12.769L10.356 12.7691L11.5701 13.65ZM10.3901 15.2764L9.17601 14.3955L6.40531 18.2144L10.8727 16.6966L10.3901 15.2764ZM12.3066 14.6252L11.8242 13.2049L11.8241 13.205L12.3066 14.6252ZM18.8899 6.13837V4.63837H17.4871L17.3933 6.03805L18.8899 6.13837ZM24 4H18.2644V7H24V4ZM16.7644 5.5C16.7644 8.7704 14.621 11.5799 11.6137 12.6013L12.5785 15.442C16.7404 14.0283 19.7644 10.1199 19.7644 5.5H16.7644ZM13.3101 14.9026C15.2325 12.2533 16.3681 9.00464 16.3681 5.5H13.3681C13.3681 8.3459 12.4482 10.9824 10.882 13.1407L13.3101 14.9026ZM14.8681 4H9.13234V7H14.8681V4ZM7.63234 5.5C7.63234 9.62175 4.22597 13.0116 0 13.0116V16.0116C5.84506 16.0116 10.6323 11.3161 10.6323 5.5H7.63234ZM-1.5 14.5116V20.1716H1.5V14.5116H-1.5ZM0 21.6716C3.78177 21.6716 7.27191 20.3963 10.0472 18.2585L8.21651 15.8819C5.94836 17.629 3.09764 18.6716 0 18.6716V21.6716ZM7.63185 17.0702V20.1716H10.6319V17.0702H7.63185ZM9.13185 21.6716C18.1399 21.6716 25.5 14.4371 25.5 5.5H22.5C22.5 12.7428 16.5208 18.6716 9.13185 18.6716V21.6716ZM21.8401 6.07007C21.5466 12.5095 16.2813 17.7288 9.71227 18.0203L9.84529 21.0174C17.9324 20.6584 24.4713 14.2296 24.837 6.20667L21.8401 6.07007ZM11.2788 19.5188V17.0702H8.27878V19.5188H11.2788ZM11.2788 17.0702V15.762H8.27878V17.0702H11.2788ZM8.86348 14.5736L7.81853 15.3785L9.64913 17.7552L10.6941 16.9504L8.86348 14.5736ZM7.81848 15.3785C5.71467 16.999 3.22781 17.9049 0.58144 18.0206L0.712413 21.0177C3.97507 20.8752 7.05565 19.7529 9.64919 17.7552L7.81848 15.3785ZM2.14693 19.5192V15.1291H-0.853074V19.5192H2.14693ZM0.743786 16.6259C6.35798 16.2627 10.8839 11.8182 11.2548 6.23783L8.26138 6.03891C7.9924 10.0865 4.69281 13.3641 0.550067 13.6322L0.743786 16.6259ZM9.75808 7.63837H14.2067V4.63837H9.75808V7.63837ZM12.7082 6.07041C12.5987 8.48568 11.7933 10.7882 10.356 12.769L12.7842 14.5309C14.5638 12.0782 15.5688 9.21118 15.7051 6.20634L12.7082 6.07041ZM10.356 12.7691L9.17601 14.3955L11.6042 16.1572L12.7842 14.5308L10.356 12.7691ZM10.8727 16.6966L12.7892 16.0455L11.8241 13.205L9.90759 13.8561L10.8727 16.6966ZM12.7891 16.0455C17.1004 14.5812 20.0873 10.7037 20.3866 6.2387L17.3933 6.03805C17.176 9.27917 15.0027 12.1254 11.8242 13.2049L12.7891 16.0455ZM18.8899 7.63837H23.3385V4.63837H18.8899V7.63837Z" fill="#1CB75A" mask="url(#path-4-inside-1_0_15985)"/>
</svg>
