<svg width="24" height="25" viewBox="0 0 24 25" fill="none" xmlns="http://www.w3.org/2000/svg">
<g clip-path="url(#clip0_0_15963)">
<path d="M15.6702 5.92105C15.6702 7.94852 14.0266 9.5921 11.9992 9.5921V11.0921C14.8551 11.0921 17.1702 8.77695 17.1702 5.92105H15.6702ZM11.9992 2.25C14.0266 2.25 15.6702 3.89359 15.6702 5.92105H17.1702C17.1702 3.06516 14.8551 0.75 11.9992 0.75V2.25ZM8.32812 5.92105C8.32812 3.89359 9.97171 2.25 11.9992 2.25V0.75C9.14328 0.75 6.82812 3.06516 6.82812 5.92105H8.32812ZM11.9992 9.5921C9.97171 9.5921 8.32812 7.94852 8.32812 5.92105H6.82812C6.82812 8.77695 9.14328 11.0921 11.9992 11.0921V9.5921ZM18.9854 18.0793C18.9854 18.9148 18.3859 19.8178 17.0972 20.5542C15.8298 21.2785 14.0287 21.7503 11.9986 21.7503V23.2503C14.2414 23.2503 16.3087 22.7324 17.8414 21.8566C19.3529 20.9929 20.4854 19.6854 20.4854 18.0793H18.9854ZM11.9986 14.4082C14.0287 14.4082 15.8298 14.88 17.0972 15.6043C18.3859 16.3407 18.9854 17.2437 18.9854 18.0793H20.4854C20.4854 16.4731 19.3529 15.1656 17.8414 14.3019C16.3087 13.4261 14.2414 12.9082 11.9986 12.9082V14.4082ZM5.01172 18.0793C5.01172 17.2437 5.6112 16.3407 6.89989 15.6043C8.16737 14.88 9.96843 14.4082 11.9986 14.4082V12.9082C9.75575 12.9082 7.68839 13.4261 6.15568 14.3019C4.64419 15.1656 3.51172 16.4731 3.51172 18.0793H5.01172ZM11.9986 21.7503C9.96843 21.7503 8.16737 21.2785 6.89989 20.5542C5.6112 19.8178 5.01172 18.9148 5.01172 18.0793H3.51172C3.51172 19.6854 4.64419 20.9929 6.15568 21.8566C7.68839 22.7324 9.75575 23.2503 11.9986 23.2503V21.7503Z" fill="#00AE46"/>
</g>
<defs>
<clipPath id="clip0_0_15963">
<rect width="24" height="24" fill="white" transform="translate(0 0.5)"/>
</clipPath>
</defs>
</svg>
