<svg width="188" height="160" viewBox="0 0 188 160" fill="none" xmlns="http://www.w3.org/2000/svg">
<path d="M108.243 70.6593L111.686 62.2951L111.361 11.0052L108.211 8.73145L35.2226 50.1141L30.5451 59.3879L30.6588 108.014C30.6588 108.014 29.1321 113.504 32.1854 113.455C35.2388 113.406 108.243 70.6755 108.243 70.6755V70.6593Z" fill="white"/>
<path d="M36.2459 49.3673L105.775 8.79671C107.594 7.72479 109.234 7.6111 110.403 8.32571L104.605 4.94754C103.436 4.23292 101.796 4.36285 99.9765 5.41853L30.4965 46.0379C26.8585 48.1168 24 53.2003 24 57.4067L24.1137 106.504C24.1137 108.583 24.9907 109.768 26.1601 110.467L31.7796 113.78C30.6102 113.065 29.8469 111.945 29.8469 109.866L29.7332 60.7687" fill="#F0F0F0"/>
<path d="M53.3963 137.964L78.4078 152.646C81.9809 154.725 87.844 154.773 91.417 152.646L160.946 112.075C162.765 111.003 163.642 109.59 163.642 108.226V101.469C163.642 102.899 162.765 104.247 160.946 105.319L91.417 145.889C87.779 148.017 81.9809 148.017 78.4078 145.889L36.408 121.251C34.5889 120.179 33.7119 118.815 33.7119 117.467V124.223C33.7119 125.588 34.6539 126.952 36.408 128.008L43.6678 132.279L53.3963 137.964Z" fill="#F0F0F0"/>
<path d="M33.8909 117.418C33.8909 117.597 33.9559 117.775 33.9559 117.954V118.019C33.9559 118.019 34.0208 118.133 34.0208 118.198C34.0208 118.311 34.0858 118.376 34.0858 118.49C34.1508 118.555 34.1508 118.669 34.1995 118.734C34.2645 118.799 34.2645 118.912 34.3132 118.977C34.3132 119.042 34.4269 119.156 34.4269 119.221C34.4269 119.286 34.4918 119.4 34.5406 119.465C34.6055 119.578 34.6543 119.643 34.7192 119.708C34.8329 119.887 34.9466 120.001 35.1252 120.179C35.1252 120.179 35.1631 120.217 35.2389 120.293C35.2389 120.293 35.4176 120.407 35.4663 120.472C35.58 120.585 35.6937 120.65 35.8236 120.764C35.8886 120.829 35.9373 120.829 36.0023 120.878C36.0672 120.943 36.116 120.943 36.1809 120.991C36.2946 121.056 36.4083 121.105 36.5382 121.17L78.5381 145.808C78.7167 145.922 78.8954 145.987 79.0578 146.1C79.2364 146.165 79.4151 146.279 79.5775 146.344C79.7562 146.458 79.9835 146.522 80.1622 146.587C80.3409 146.652 80.5682 146.701 80.7469 146.766C81.0392 146.88 81.2666 146.945 81.5589 147.01C81.6726 147.075 81.8513 147.123 81.965 147.123C82.1924 147.123 82.4847 147.188 82.777 147.237C82.9557 147.237 83.1343 147.302 83.2968 147.302C83.6541 147.302 84.0601 147.367 84.4174 147.367H86.5288C86.7074 147.367 86.9348 147.302 87.1135 147.302C87.4058 147.302 87.6981 147.237 87.9905 147.188C88.2179 147.123 88.4615 147.075 88.6889 147.01H88.7538C88.8675 146.945 88.9812 146.945 89.1111 146.896C89.2248 146.831 89.3385 146.831 89.4684 146.782C89.6471 146.669 89.8745 146.604 90.0531 146.539C90.1181 146.474 90.2318 146.474 90.2805 146.425C90.4591 146.36 90.6378 146.246 90.8002 146.181C91.0276 146.068 91.2712 145.938 91.4986 145.824L161.027 105.253C161.255 105.14 161.498 104.961 161.677 104.831C161.856 104.717 162.034 104.539 162.197 104.409C162.262 104.344 162.31 104.23 162.424 104.165C162.538 104.1 162.603 103.987 162.651 103.922C162.765 103.808 162.879 103.629 163.009 103.451C163.074 103.386 163.122 103.272 163.187 103.207C163.252 103.142 163.252 103.028 163.301 102.963C163.366 102.898 163.366 102.785 163.415 102.72V102.655C163.415 102.655 163.48 102.541 163.48 102.476C163.48 102.411 163.545 102.363 163.545 102.298C163.545 102.233 163.61 102.119 163.61 102.054C163.675 101.94 163.675 101.81 163.675 101.697V101.453C163.675 100.089 162.733 98.7245 160.979 97.6688L156.707 95.1839L146.865 89.3858L118.979 73.0308C115.406 70.952 109.608 70.952 105.97 73.0308L36.4408 113.601C34.6218 114.673 33.7447 116.086 33.8584 117.386L33.8909 117.418Z" fill="white"/>
<path d="M124.988 116.525L131.371 112.79C131.728 112.546 131.728 112.075 131.371 111.848L122.812 106.813C122.584 106.635 122.227 106.635 121.999 106.813L94.6492 122.811C94.2432 123.054 94.2432 123.574 94.6492 123.818L103.143 128.788C103.371 128.966 103.728 128.966 103.955 128.788L118.361 120.375" stroke="#00AE46" stroke-miterlimit="10" stroke-linecap="round"/>
<path d="M157.373 94.681L161.352 97.0522C163.285 98.1729 164.406 99.7807 164.406 101.502V108.259C164.406 109.98 163.285 111.572 161.304 112.757L91.7749 153.328C87.9745 155.521 81.8191 155.586 78.0024 153.328L52.9909 138.646M35.2392 113.407C32.7705 114.885 32.3645 116.72 33.7775 118.328C33.8424 118.393 33.8912 118.442 33.9561 118.507C34.3134 118.864 34.7844 119.222 35.3041 119.514C37.1232 120.586 76.768 143.973 78.8307 145.224C82.1764 147.173 87.6821 147.173 91.0766 145.224L161.888 103.76C162.652 103.338 163.171 102.867 163.594 102.331C163.659 102.266 163.659 102.217 163.707 102.152C164.406 101.08 164.406 99.8944 163.594 98.8875M35.2554 113.391C32.5594 114.577 30.6916 113.099 30.6916 109.899C30.6916 97.2309 30.6267 88.8179 30.6267 81.6393C30.6267 74.4607 30.5617 68.6138 30.5617 60.8505C30.5617 55.702 33.6638 51.6742 36.6522 50.1313L106.181 9.56066C107.594 8.6674 108.877 8.55371 109.819 8.97598M35.2392 113.391C35.4666 113.277 35.7589 113.147 36.0675 112.969L105.596 72.398C105.824 72.2843 106.116 72.1057 106.36 71.927M106.36 71.927C111.93 69.6695 116.721 70.8064 119.418 72.398L147.239 88.7529M106.36 71.927C109.413 69.7344 111.752 65.3493 111.687 61.7438L111.622 48.0037M111.622 28.5142L111.557 12.6465C111.557 10.7463 110.907 9.44698 109.803 8.97598L104.232 5.66277C103.241 5.07808 101.893 5.2405 100.367 6.13376L30.854 46.7044C27.4596 48.6533 24.6986 53.4607 24.7636 57.4236L24.8773 106.521C24.8773 108.242 25.397 109.477 26.4039 110.078L32.2021 113.456M43.3273 132.945L36.0675 128.674C34.0698 127.553 33.0141 125.945 33.0141 124.224V117.467M100.009 93.6416C100.367 93.4142 108.731 88.558 108.211 88.8504L116.348 93.6416C115.991 93.8689 107.626 98.7251 108.146 98.4327M100.009 93.6416L108.146 98.4327M100.009 93.6416L91.8074 98.4327L83.6706 93.6416L91.8724 88.8504C92.6357 89.3214 100.48 93.9339 100.009 93.6416ZM108.146 98.4327L116.283 103.224L124.42 98.4327L116.283 93.6416L108.146 98.4327ZM83.5569 122.372L75.42 117.581M83.5569 122.372L75.7123 126.936C75.4687 127.05 75.1764 127.05 74.949 126.936L67.2182 122.372L75.42 117.581M83.5569 122.372L116.299 103.24L108.162 98.449L75.42 117.581M35.1092 60.7368C35.1092 58.6579 36.8633 55.5883 38.6174 54.5814L103.404 16.788C104.979 15.846 106.977 17.0316 106.977 18.8669L107.09 61.695C107.09 63.7739 105.336 66.8435 103.582 67.8505L38.796 105.644C37.2206 106.586 35.2229 105.4 35.2229 103.565L35.1092 60.7368ZM75.4687 117.581L67.3319 112.79C67.8029 112.498 59.5361 117.354 59.13 117.581L67.2669 122.372C66.7472 122.665 75.0627 117.76 75.4687 117.581ZM100.009 93.5928C99.5382 93.8852 107.269 89.3214 108.211 88.8017L100.074 84.0105L91.8724 88.8017C91.4014 88.558 99.2459 93.1868 100.009 93.5928ZM124.501 88.8504L116.364 84.0592L108.162 88.8504L116.299 93.6416C115.779 93.9339 124.144 89.0778 124.501 88.8504ZM75.4687 107.983L67.2669 112.774C66.7472 112.481 74.884 117.273 75.4038 117.565L83.6056 112.774C84.0116 113.017 76.4594 108.567 75.4687 107.983ZM100.009 103.24L108.211 98.449C108.731 98.7413 100.594 93.9501 100.074 93.6578L91.8724 98.449C91.4014 98.1566 99.2459 102.769 100.009 103.24ZM75.4687 98.3678C74.949 98.0754 83.0859 102.867 83.6056 103.159L91.8074 98.3678L83.6706 93.5766L75.4687 98.3678ZM75.4687 107.966C74.9977 107.674 82.6798 112.173 83.6056 112.757L91.8074 107.966C92.2784 108.259 84.4339 103.646 83.6706 103.175C84.1903 102.883 75.826 107.788 75.4687 107.966ZM131.94 94.0476C132.232 93.8689 132.232 93.4629 131.94 93.2842L124.436 88.8991C124.956 88.6068 117.063 93.2193 116.234 93.6903L124.371 98.4814L131.923 94.0313L131.94 94.0476ZM100.009 84.043L108.146 88.8341L116.348 84.043L108.552 79.4792C108.325 79.3655 108.032 79.3655 107.789 79.4792L99.993 84.043H100.009ZM67.2831 103.175L75.42 107.966C74.9003 108.259 83.2645 103.403 83.6218 103.175L75.485 98.384L67.2831 103.175ZM59.0651 107.983L67.2019 112.774L75.4038 107.983C75.8748 108.275 68.0302 103.662 67.2669 103.191L59.0651 107.983ZM51.6428 113.196L59.0813 117.581L67.2831 112.79L59.1463 107.999L51.6428 112.384C51.2855 112.563 51.2855 112.969 51.6428 113.212V113.196Z" stroke="#040505" stroke-miterlimit="10" stroke-linecap="round"/>
<path d="M83.0694 60.6515L81.0469 60.0137L92.1496 40.4624L93.6924 41.3127L83.0694 60.6515Z" fill="#F0F0F0" stroke="#00AE46" stroke-miterlimit="10"/>
<path d="M91.471 40.0553L90.0801 39.3143L96.3117 35.5L97.6844 36.2774L91.471 40.0553Z" fill="#F0F0F0" stroke="#00AE46" stroke-miterlimit="10" stroke-linejoin="round"/>
<path d="M73.3824 55.1304L74.9069 55.8046L62.3707 76.7043L60.8037 76.1941L73.3824 55.1304Z" fill="#F0F0F0" stroke="#00AE46" stroke-miterlimit="10"/>
<path d="M70.6012 69.1909L75.5634 60.6937L83.6779 65.1154L96.6089 42.9706L98.1881 43.8209L97.684 36.2773L91.4705 40.0552L93.6935 41.3064L83.022 60.2503L74.9075 55.8105L62.3834 76.7162L50.1327 69.8711L48.2256 73.2481L63.3613 81.5813L69.2285 71.5414" fill="white"/>
<path d="M70.6012 69.1909L75.5634 60.6937L83.6779 65.1154L96.6089 42.9706L98.1881 43.8209L97.684 36.2773L91.4705 40.0552L93.6935 41.3064L83.022 60.2503L74.9075 55.8105L62.3834 76.7162L50.1327 69.8711L48.2256 73.2481L63.3613 81.5813L69.2285 71.5414" stroke="#00AE46" stroke-miterlimit="10" stroke-linecap="round" stroke-linejoin="round"/>
<path d="M48.2254 73.2483L50.2115 69.9078L48.3469 68.9724L46.4033 72.2461L48.2254 73.2483Z" fill="#F0F0F0" stroke="#00AE46" stroke-miterlimit="10"/>
</svg>
