<svg width="188" height="160" viewBox="0 0 188 160" fill="none" xmlns="http://www.w3.org/2000/svg">
<path d="M29 99L48.5 91L93 100.5V133.5L62 131.5L18 108.5V104L29 99Z" fill="#F0F0F0"/>
<path d="M142.992 103.362C142.992 103.362 142.463 123.585 142.199 123.981C141.935 124.378 88.0077 151.209 80.3416 151.87C72.6756 152.531 18.4844 128.079 17.6913 125.567C16.8983 123.056 17.6913 106.931 17.6913 106.931C17.6913 106.931 73.3364 132.969 80.7382 132.573C88.1399 132.176 142.992 103.362 142.992 103.362Z" fill="#F0F0F0"/>
<path d="M142.993 83.9312C142.993 83.9312 142.596 103.625 142.332 103.889C142.067 104.154 100.433 127.681 94.0883 128.077C87.7439 128.474 39.6327 108.251 39.104 106.136C38.5753 104.022 38.9719 86.839 38.9719 86.839C38.9719 86.839 85.2326 108.383 91.3126 108.119C97.3926 107.855 142.993 83.9312 142.993 83.9312Z" fill="#F0F0F0"/>
<path d="M106.777 141.164L88.0081 149.888L87.0829 150.284C82.3247 152.135 77.0377 152.267 72.1473 150.548L70.9577 150.02L64.6134 147.244L42.8047 137.992L42.1439 137.728L30.9091 132.969L20.5996 128.608C18.617 127.815 17.5596 126.625 17.5596 125.435V125.303V117.637" stroke="#1C1D22" stroke-miterlimit="10" stroke-linecap="round"/>
<path d="M117.351 136.269L128.718 130.982L139.027 126.224L139.292 126.092C141.274 125.166 142.332 123.977 142.464 122.787V122.655L143.125 86.7038V83.6638L116.822 90.0082H116.293L112.46 88.4221L106.248 85.7786L105.587 85.5143L102.019 84.0603L100.432 83.3995L96.4673 81.6812C95.2777 81.1525 93.956 80.8882 92.6342 80.756C91.0482 80.6238 89.4621 80.6238 87.876 80.8882C86.4221 81.0204 85.1003 81.4169 83.7786 82.0777L80.7386 83.6638L77.1699 84.0603" stroke="#1C1D22" stroke-linecap="round" stroke-linejoin="round"/>
<path d="M17.6904 112.879V106.271" stroke="#1C1D22" stroke-miterlimit="10" stroke-linecap="round"/>
<path d="M52.5856 122.919L20.5996 109.305C18.617 108.512 17.5596 107.322 17.5596 106.133V106.001C17.5596 104.811 18.617 103.621 20.5996 102.696L31.7021 97.4092L38.3108 94.2371" stroke="#1C1D22" stroke-miterlimit="10" stroke-linecap="round"/>
<path d="M64.4803 128.079L72.2785 131.383C73.0715 131.779 73.9968 132.044 74.7898 132.176C77.962 132.837 81.2663 132.705 84.3063 132.044C85.2315 131.779 86.2889 131.515 87.2141 131.119L95.5411 127.153L100.035 125.039L96.4663 126.36C92.5011 127.814 88.1393 127.814 84.1741 126.228L83.2489 125.832L77.962 123.585L59.722 115.919L59.1933 115.654L49.809 111.689L41.2177 107.988C39.4994 107.327 38.7064 106.402 38.7064 105.345V105.213L38.5742 89.0874" stroke="#1C1D22" stroke-linecap="round" stroke-linejoin="round"/>
<path d="M50.4712 93.0491L41.0868 89.0839C39.3686 88.4231 38.5755 87.3657 38.4434 86.4404V86.3083C38.4434 85.2509 39.3686 84.3257 40.9547 83.5326L50.2068 79.0387L68.3146 70.4474L77.3024 66.2179L77.6989 65.9535L84.0433 62.9135C86.0259 62.1205 88.0085 61.5918 90.1232 61.5918C90.3876 61.5918 90.7841 61.5918 91.0485 61.5918C92.8989 61.5918 94.8815 61.9883 96.5998 62.6492L103.208 65.4248L112.725 69.39L130.965 77.1883L139.953 81.0213L140.481 81.2857C142.332 82.0787 143.125 83.1361 142.993 84.1935C142.861 85.1187 141.935 86.1761 140.349 86.9691L139.953 87.2335L113.121 99.79L103.605 104.152L96.5998 107.456C95.8067 107.853 95.0137 108.117 94.2206 108.249C91.5772 108.778 88.9337 108.91 86.2902 108.381C85.4972 108.249 84.8363 107.985 84.1754 107.72L77.6989 104.945L77.1702 104.68L67.7859 100.715L60.5164 97.6752" fill="white"/>
<path d="M50.4712 93.0491L41.0868 89.0839C39.3686 88.4231 38.5755 87.3657 38.4434 86.4404V86.3083C38.4434 85.2509 39.3686 84.3257 40.9547 83.5326L50.2068 79.0387L68.3146 70.4474L77.3024 66.2179L77.6989 65.9535L84.0433 62.9135C86.0259 62.1205 88.0085 61.5918 90.1232 61.5918C90.3876 61.5918 90.7841 61.5918 91.0485 61.5918C92.8989 61.5918 94.8815 61.9883 96.5998 62.6492L103.208 65.4248L112.725 69.39L130.965 77.1883L139.953 81.0213L140.481 81.2857C142.332 82.0787 143.125 83.1361 142.993 84.1935C142.861 85.1187 141.935 86.1761 140.349 86.9691L139.953 87.2335L113.121 99.79L103.605 104.152L96.5998 107.456C95.8067 107.853 95.0137 108.117 94.2206 108.249C91.5772 108.778 88.9337 108.91 86.2902 108.381C85.4972 108.249 84.8363 107.985 84.1754 107.72L77.6989 104.945L77.1702 104.68L67.7859 100.715L60.5164 97.6752" stroke="#1C1D22" stroke-linecap="round" stroke-linejoin="round"/>
<path d="M135.326 150.806L139.952 151.6L145.635 148.956L125.545 74.1458H119.994L116.028 76.7892L135.326 150.806Z" fill="#F8F8F8"/>
<path d="M150.262 81.9481L129.378 93.7115L127.792 82.609L143.785 73.8855L149.072 75.0751L150.262 81.9481Z" fill="#F8F8F8"/>
<path d="M155.944 104.021L136.911 115.123L133.475 104.681L149.468 95.958L154.755 97.1476L155.944 104.021Z" fill="#F8F8F8"/>
<path d="M161.1 125.433L142.067 136.403L138.631 126.094L154.624 117.37L159.911 118.56L161.1 125.433Z" fill="#F8F8F8"/>
<path d="M159.381 136.266L164.14 137.191L169.691 134.151L149.6 59.7375H144.049L140.084 62.2488L159.381 136.266Z" fill="#F8F8F8"/>
<path d="M116.16 77.9821L135.326 150.81L139.027 151.339L120.654 76.6604L116.028 76.7926L116.16 77.9821Z" fill="#F0F0F0"/>
<path d="M120.655 77.1875L139.952 151.337L144.974 148.429" fill="white"/>
<path d="M120.655 77.1875L139.952 151.337L144.974 148.429" stroke="#00AE46" stroke-linecap="round" stroke-linejoin="round"/>
<path d="M145.107 148.432L141.935 136.008L142.595 135.612L161.496 124.641L161.628 125.038" stroke="#00AE46" stroke-linecap="round" stroke-linejoin="round"/>
<path d="M156.078 103.886L155.945 103.489L136.384 114.856L140.217 129.263L159.646 117.896L154.227 117.235L139.292 125.959" stroke="#00AE46" stroke-linecap="round" stroke-linejoin="round"/>
<path d="M150.261 81.9502L130.831 93.3171L134.664 108.121" stroke="#00AE46" stroke-linecap="round" stroke-linejoin="round"/>
<path d="M128.187 83.1361L143.123 74.4126L148.674 75.0735L128.98 86.5726L125.94 74.5448" stroke="#00AE46" stroke-linecap="round" stroke-linejoin="round"/>
<path d="M133.872 145.654L135.326 150.808L139.952 151.337" stroke="#00AE46" stroke-miterlimit="10" stroke-linecap="round"/>
<path d="M116.028 76.6604L132.55 140.368" stroke="#00AE46" stroke-miterlimit="10" stroke-linecap="round"/>
<path d="M120.655 77.0536L125.809 74.1458" stroke="#00AE46" stroke-linecap="round" stroke-linejoin="round"/>
<path d="M116.028 76.5271L120.654 77.0558" stroke="#00AE46" stroke-linecap="round" stroke-linejoin="round"/>
<path d="M121.051 73.4919L115.896 76.3998" stroke="#00AE46" stroke-linecap="round" stroke-linejoin="round"/>
<path d="M125.81 74.1528L121.052 73.4919" stroke="#00AE46" stroke-linecap="round" stroke-linejoin="round"/>
<path d="M161.627 125.035L164.799 137.195L169.822 134.155" stroke="#00AE46" stroke-linecap="round" stroke-linejoin="round"/>
<path d="M156.078 103.883L159.647 117.629" stroke="#00AE46" stroke-linecap="round" stroke-linejoin="round"/>
<path d="M150.393 81.9502L154.094 96.3571" stroke="#00AE46" stroke-linecap="round" stroke-linejoin="round"/>
<path d="M145.503 62.9126L148.543 74.6761" stroke="#00AE46" stroke-linecap="round" stroke-linejoin="round"/>
<path d="M159.381 93.7102L169.955 134.155" stroke="#00AE46" stroke-linecap="round" stroke-linejoin="round"/>
<path d="M150.658 60.271L157.399 85.7805" stroke="#00AE46" stroke-linecap="round" stroke-linejoin="round"/>
<path d="M157.531 126.882L160.043 136.531L164.801 137.192" stroke="#00AE46" stroke-miterlimit="10"/>
<path d="M151.98 105.47L154.888 117.101" stroke="#00AE46" stroke-miterlimit="10"/>
<path d="M146.429 84.0581L149.469 96.0859" stroke="#00AE46" stroke-miterlimit="10"/>
<path d="M145.503 62.9122L150.526 60.0044" stroke="#00AE46" stroke-linecap="round" stroke-linejoin="round"/>
<path d="M140.746 62.2522L145.504 62.9131" stroke="#00AE46" stroke-linecap="round" stroke-linejoin="round"/>
<path d="M145.108 59.604L140.614 62.1153" stroke="#00AE46" stroke-linecap="round" stroke-linejoin="round"/>
<path d="M150.527 60.006L145.24 59.4773" stroke="#00AE46" stroke-linecap="round" stroke-linejoin="round"/>
<path d="M134.665 108.119L154.227 96.6202L148.808 96.0916L133.872 104.683" stroke="#00AE46" stroke-linecap="round" stroke-linejoin="round"/>
<path d="M140.614 62.2522L143.786 74.4122" stroke="#00AE46" stroke-linecap="round" stroke-linejoin="round"/>
<path d="M94.422 83.8321C89.7098 86.4744 82.0026 86.4744 77.2905 83.8321C74.8968 82.4965 73.7 80.7389 73.7 78.9812V82.0051C73.7 83.7396 74.8968 85.5262 77.2905 86.8618C82.0373 89.4983 89.7445 89.4983 94.422 86.8618C96.7347 85.5262 97.9431 83.7974 97.9431 82.0745V79.0506C97.9258 80.7736 96.7694 82.4965 94.422 83.8321Z" fill="#F0F0F0"/>
<path d="M94.3873 73.7726C94.3873 73.7634 94.3836 73.7546 94.3771 73.7481C94.3706 73.7416 94.3618 73.7379 94.3526 73.7379C92.8561 72.912 91.6034 71.7067 90.7204 70.2432C89.8374 68.7797 89.3553 67.1095 89.3224 65.4005V63.8279C89.2905 64.1314 89.1791 64.4211 88.9994 64.6678C88.8197 64.9145 88.5781 65.1094 88.299 65.2329C87.5404 65.6151 86.7028 65.8142 85.8533 65.8142C85.0038 65.8142 84.1662 65.6151 83.4076 65.2329C83.1241 65.1165 82.8787 64.9233 82.6989 64.6751C82.5192 64.4269 82.4122 64.1335 82.39 63.8279V65.4121C82.3512 67.1193 81.8624 68.7861 80.9731 70.2439C80.0838 71.7017 78.8254 72.899 77.3251 73.7148C77.2905 73.7495 77.2558 73.7494 77.2153 73.7841C72.5031 76.4958 72.5378 80.9247 77.2905 83.7057C82.0431 86.4868 89.7445 86.4174 94.422 83.7057C99.0994 80.9941 99.1399 76.5479 94.3873 73.7726Z" fill="white"/>
<path d="M107.51 34.6826C107.516 34.8356 107.505 34.9889 107.476 35.1393C107.476 35.2087 107.51 35.2492 107.51 35.2839L111.835 30.7451C113.281 29.1609 114.478 26.4839 114.478 24.6916C114.478 23.4254 113.986 22.2285 113.281 21.8007L111.136 21.448C111.835 21.8701 111.413 21.9741 111.413 23.2403C111.413 25.0385 109.679 27.3223 108.251 28.8718L107.672 29.5078C107.806 30.4174 107.794 31.3425 107.638 32.2484C107.638 32.3583 107.603 32.4276 107.603 32.5317C107.643 32.6573 107.666 32.7875 107.672 32.9191C107.836 33.5069 107.779 34.1344 107.51 34.6826Z" fill="#F0F0F0"/>
<path d="M101.393 19.482C101.203 19.6029 101.026 19.7445 100.867 19.9041C100.151 20.5757 99.7228 21.4973 99.67 22.477C99.649 22.6891 99.687 22.9028 99.7799 23.0947C99.8727 23.2865 100.017 23.4489 100.196 23.564L103.607 25.5356C103.433 25.4157 103.296 25.2505 103.209 25.0578C103.122 24.8652 103.09 24.6525 103.116 24.4428C103.153 23.8489 103.33 23.2721 103.631 22.7589C103.933 22.2458 104.35 21.8105 104.85 21.4883L110.482 18.2158C112.558 17.019 114.425 16.9149 115.761 17.6897L112.349 15.7181C111.008 14.9086 109.146 15.0127 107.071 16.2096L101.393 19.482Z" fill="#F0F0F0"/>
<path d="M104.557 21.6683C104.052 21.9859 103.631 22.42 103.33 22.9342C103.028 23.4483 102.854 24.0274 102.822 24.6228C102.822 25.7098 103.591 26.1723 104.557 25.6057L110.183 22.3332C111.275 21.703 112.258 21.6336 112.998 22.0557C113.738 22.4777 114.155 23.3566 114.155 24.6228C114.051 26.6855 113.214 28.6435 111.796 30.1444L101.209 41.7543C100.365 42.6736 99.9777 44.067 100.365 44.8533C100.643 45.4315 101.279 45.5183 101.944 45.1367C102.219 44.9989 102.46 44.8014 102.649 44.5585L113.276 32.9486C115.947 30.0288 117.641 26.0104 117.641 22.6396C117.601 17.9275 114.293 16.0252 110.177 18.3842L104.557 21.6683Z" fill="white"/>
<path d="M111.378 21.8753C111.627 23.2456 110.748 26.3793 108.638 28.7383L107.158 30.3225M106.736 24.7951C106.641 24.5619 106.523 24.339 106.383 24.1302C110.043 22.014 110.043 21.9794 110.326 21.8753C112.789 20.6438 114.582 22.0892 114.582 24.6216C114.475 26.7807 113.602 28.8309 112.118 30.4035L107.296 35.7169M106.499 40.9668L113.576 33.2307C116.305 30.2705 118.039 26.1423 118.039 22.6732C118.039 20.2795 117.201 18.4871 115.726 17.5736C115.53 17.3944 112.402 15.6714 112.257 15.5673C110.748 14.6538 108.707 14.8619 106.597 16.0588L101.247 19.261M104.458 21.3376L110.066 18.0419C111.01 17.4677 112.067 17.1065 113.165 16.9839C113.695 17.0022 114.223 17.0621 114.743 17.1631C115.229 17.3084 115.692 17.5205 116.119 17.7933" stroke="black" stroke-miterlimit="10"/>
<path d="M69.6336 38.3116C73.1027 40.3295 77.7282 40.6821 81.7118 41.0927C87.7769 41.7171 93.3564 41.3586 98.6294 38.3116C103.064 35.7792 107.406 35.704 107.406 32.3621V31.7839C107.794 45.0821 100.19 57.6113 93.8594 64.4338C92.7627 65.588 91.4454 66.5101 89.9856 67.1455C87.6479 68.1492 85.0464 68.3626 82.5763 67.7532C80.1063 67.1437 77.9026 65.7449 76.3 63.7689C70.7437 56.9059 63.7419 45.4348 62.7185 33.1253C63.0019 36.1955 65.621 35.9179 69.6336 38.3116Z" fill="white"/>
<path d="M67.7486 30.3259C67.7848 30.4351 67.8333 30.5399 67.8932 30.6381C68.9374 28.91 70.4325 27.4988 72.218 26.5561C75.6871 24.5556 80.3125 23.4628 85.2386 23.4628C90.1647 23.4628 94.7728 24.5556 98.1841 26.5561C100.19 27.753 101.653 29.129 102.411 30.6034C102.445 30.534 102.48 30.4299 102.515 30.3605C102.549 30.2912 102.549 30.3259 102.549 30.2912C102.584 30.1466 102.653 30.0426 102.688 29.9038C102.723 29.765 102.723 29.7939 102.723 29.7592C102.765 29.6692 102.802 29.5765 102.833 29.4817C102.833 29.4412 102.867 29.4065 102.867 29.3719C102.874 29.2403 102.897 29.1102 102.937 28.9845C102.95 28.9708 102.96 28.9544 102.966 28.9364C102.972 28.9184 102.974 28.8992 102.971 28.8804C102.971 28.811 103.006 28.7069 103.006 28.5971V28.0709C103.006 26.3827 102.162 24.7291 100.578 23.2489C100.161 22.8529 99.7145 22.4895 99.2422 22.1619C98.8895 21.9133 98.5021 21.7052 98.1147 21.4566C94.7034 19.4503 90.0953 18.3633 85.1692 18.3633C84.3945 18.3633 83.6197 18.3633 82.8565 18.4327C81.3762 18.5332 79.9055 18.7438 78.4566 19.0629C76.2638 19.5341 74.1534 20.3291 72.1949 21.4219C70.608 22.2607 69.2458 23.4682 68.2228 24.943C67.6051 25.8717 67.2624 26.956 67.2341 28.0709C67.2169 28.2111 67.2169 28.3529 67.2341 28.493V28.5971C67.2341 28.7069 67.2687 28.811 67.2687 28.9151V29.0192C67.2745 29.1508 67.2978 29.2811 67.3381 29.4065C67.3381 29.4412 67.3786 29.4817 67.3786 29.5164C67.3852 29.6123 67.4087 29.7062 67.448 29.7939C67.4429 29.8447 67.4551 29.8956 67.4827 29.9385C67.5174 30.0426 67.5521 30.1119 67.5868 30.216C67.6044 30.2448 67.6279 30.2695 67.6558 30.2884C67.6837 30.3074 67.7154 30.3201 67.7486 30.3259Z" fill="#F0F0F0"/>
<path d="M98.294 26.5533C97.2206 25.9609 96.101 25.4562 94.9463 25.0442C91.7502 23.9135 88.3801 23.3538 84.99 23.3906C79.9599 23.3906 75.2477 24.5181 71.7266 26.5533C69.6509 27.7501 68.1765 29.1609 67.4018 30.6699C68.4354 32.4587 69.9604 33.9135 71.7959 34.8617C75.3171 36.9374 80.0639 38.0591 85.0941 38.0591C88.4392 38.0889 91.7643 37.5412 94.9232 36.4402C96.1242 36.0324 97.2853 35.5156 98.3923 34.8964C100.188 33.9518 101.685 32.5265 102.717 30.7798C101.659 28.9917 100.128 27.5295 98.294 26.5533Z" fill="#F0F0F0"/>
<path d="M69.2641 18.8501C78.0236 13.7795 92.2064 13.7795 100.896 18.8501C109.586 23.9208 109.569 32.1483 100.792 37.2131C92.0156 42.278 77.8501 42.2838 69.16 37.2131C60.47 32.1425 60.5047 23.9323 69.2641 18.8501ZM72.0105 34.6807C75.4217 36.687 80.0299 37.7798 84.956 37.7798C89.8821 37.7798 94.4902 36.687 97.9766 34.6807C99.7733 33.7378 101.271 32.3121 102.301 30.5641C104.238 26.8695 101.723 23.5276 98.0807 21.4172C94.6694 19.4109 90.0613 18.3182 85.1352 18.3182C84.3604 18.3182 83.5857 18.3587 82.8225 18.3934C81.3419 18.491 79.871 18.7017 78.4225 19.0236C76.2273 19.4862 74.1156 20.2817 72.1608 21.3825C70.5904 22.2423 69.233 23.4436 68.1887 24.8979C67.563 25.8249 67.2196 26.9134 67.2 28.0316C67.1943 28.1732 67.2059 28.315 67.2347 28.4537V28.5578C67.2347 28.6676 67.2694 28.7717 67.2694 28.8758V28.9798C67.3041 29.1244 67.3041 29.2285 67.3388 29.3672C67.3388 29.4019 67.3792 29.4366 67.3792 29.4771C67.4185 29.5648 67.442 29.6587 67.4486 29.7546C67.4486 29.7893 67.4833 29.8587 67.4833 29.8992C67.4833 29.9396 67.5527 30.0726 67.5874 30.1767C67.6221 30.2807 67.6221 30.246 67.6221 30.2865C67.6221 30.327 67.7262 30.4947 67.7609 30.5987C68.7741 32.3251 70.2448 33.7378 72.0105 34.6807Z" fill="white"/>
<path d="M63.1413 28.2503V32.5751C63.1066 38.3107 65.217 46.4052 68.6687 53.089C70.0073 55.5902 71.512 57.999 73.1728 60.2989C73.1728 60.2989 75.2484 63.1147 75.9827 64.0282C77.5075 65.8975 79.5546 67.2703 81.8628 67.9714C81.5768 69.2022 81.0339 70.3588 80.2696 71.3652C79.5054 72.3715 78.5371 73.205 77.4282 73.811L77.2894 73.8804C74.9767 75.1813 73.6989 77.0141 73.6989 78.951V82.0096C73.6989 83.9812 74.9998 85.8083 77.3588 87.1843C79.7178 88.5604 82.7764 89.2195 85.8349 89.2195C88.7892 89.2724 91.7082 88.572 94.3169 87.1843C96.6758 85.8429 97.9421 84.0159 97.9421 82.079V79.0204C97.9421 77.0488 96.6411 75.2218 94.2475 73.8457C93.084 73.1998 92.0752 72.3082 91.2914 71.2328C90.5075 70.1574 89.9674 68.924 89.7087 67.6187C89.8475 67.5493 89.9863 67.5146 90.1308 67.4452C91.6613 66.817 93.0321 65.855 94.1434 64.6295C94.2214 64.5671 94.2914 64.4953 94.3515 64.4156C97.3865 60.8313 100.039 56.9403 102.267 52.8057C105.736 46.1219 107.829 38.0274 107.794 32.2918V27.9844" stroke="black" stroke-miterlimit="10"/>
<path d="M73.7669 79.6794C73.8086 79.8162 73.8689 79.9466 73.9462 80.0669C74.1149 80.375 74.3082 80.6688 74.5244 80.9457C74.7178 81.2607 74.9404 81.5569 75.1893 81.8303C75.3968 82.0676 75.6209 82.2898 75.86 82.4952C75.8947 82.5646 75.9294 82.5993 75.9641 82.5993C76.1792 82.8682 76.4418 83.0956 76.7388 83.27C76.7735 83.3393 76.8082 83.374 76.8487 83.374C77.1573 83.6242 77.4861 83.8485 77.8316 84.0447C78.4103 84.4063 79.0221 84.7122 79.6586 84.9582C81.6344 85.7661 83.7511 86.173 85.8856 86.1551C88.009 86.1741 90.1146 85.7671 92.078 84.9582C93.0816 84.57 94.0286 84.0488 94.8937 83.4087C95.0143 83.2839 95.1438 83.168 95.2811 83.0618L95.4256 82.9173C95.6685 82.7091 95.9518 82.4605 96.1946 82.2177C96.8668 81.5144 97.437 80.7203 97.8887 79.8587" stroke="black" stroke-miterlimit="10" stroke-linecap="round"/>
<path d="M63.1405 28.3128C63.1405 24.8958 65.4532 21.7331 69.6855 19.2701C78.445 14.2052 92.6624 14.2052 101.387 19.2701C105.504 21.6638 107.793 24.8958 107.793 28.203V28.2434C107.793 39.7088 83.4462 45.3056 69.5468 37.2457C65.4301 34.8578 63.1405 31.6894 63.1405 28.3128Z" stroke="black" stroke-miterlimit="10"/>
<path d="M102.232 30.0395C101.187 28.5819 99.8276 27.3784 98.254 26.5183C94.785 24.5178 90.0959 23.3904 85.1004 23.3904C80.1049 23.3904 75.4217 24.4774 71.9063 26.5183C70.2925 27.3923 68.8971 28.6197 67.8244 30.1088" stroke="black" stroke-miterlimit="10"/>
<path d="M67.8239 29.7895C67.5338 29.0156 67.4381 28.1823 67.5449 27.3628C67.6518 26.5433 67.958 25.7625 68.4367 25.0889C69.4339 23.6799 70.7466 22.5236 72.2701 21.7123C75.2304 19.9777 79.6592 18.6826 85.0826 18.6826C90.2168 18.6826 96.6925 20.0587 100.242 23.47C102.497 25.5803 102.919 27.8005 102.214 29.697L101.827 30.5758C100.82 32.1648 99.4276 33.4735 97.7794 34.3802C94.4028 36.346 89.8294 37.4041 84.9727 37.4041C80.116 37.4041 75.5831 36.3114 72.2007 34.3398C70.5652 33.4925 69.1919 32.2151 68.2286 30.6452L67.8239 29.7895Z" stroke="black" stroke-miterlimit="10"/>
<path d="M70.8143 54.8751C70.6479 54.8046 70.4688 54.7692 70.2882 54.7711L59.6265 55.4417C59.2076 55.4765 58.7885 55.3773 58.4297 55.1584L61.8409 57.1647C62.2087 57.3577 62.6238 57.442 63.0377 57.4076L73.6416 56.7773C73.8227 56.7703 74.0029 56.806 74.1677 56.8814L70.8143 54.8751Z" fill="#F0F0F0"/>
<path d="M67.8592 38.4441C67.6779 38.3438 67.4704 38.3007 67.2641 38.3203C67.0578 38.3399 66.8622 38.4213 66.7029 38.554L61.216 41.7513C57.2381 44.064 54.0003 49.6319 54.0003 54.2458C54.0003 56.4949 54.775 58.1485 56.0759 58.8712L59.4178 60.8082C58.1169 60.0334 57.3421 58.3798 57.3421 56.1827C57.3421 51.5573 60.5452 46.0183 64.5578 43.7287L70.0795 40.5256C70.2438 40.4032 70.4388 40.3287 70.6429 40.3103C70.847 40.2919 71.0523 40.3304 71.2358 40.4215L67.8592 38.4441Z" fill="#F0F0F0"/>
<path d="M64.4429 43.6538C60.4361 46.0475 57.1636 51.6848 57.1636 56.3102C57.1636 59.6521 58.8519 61.6584 61.4884 61.4792L71.9766 60.8142C72.2239 60.7784 72.4617 60.6939 72.6762 60.5656C73.4176 60.0897 73.9665 59.3667 74.2257 58.5247C74.6131 57.3278 74.2257 56.7901 73.3469 56.871L62.8644 57.5418C61.4537 57.6458 60.5517 56.0963 60.5517 54.3386C60.6073 52.9728 61.0049 51.6428 61.7081 50.4706C62.3677 49.2722 63.3257 48.2645 64.4891 47.545L70.0802 44.313C70.5707 43.9912 70.9789 43.559 71.2721 43.0509C71.5653 42.5428 71.7353 41.9731 71.7684 41.3874C71.7684 40.3004 71.0284 39.8436 70.0802 40.4045L64.4429 43.6538Z" fill="white"/>
<path d="M60.5395 55.4741L70.3223 54.8381C70.4182 54.8447 70.5121 54.8682 70.5998 54.9075L73.9822 56.9138" stroke="black" stroke-miterlimit="10"/>
<path d="M59.4467 60.6787L56.1742 58.7823C54.908 58.0422 54.2084 56.4233 54.2084 54.3476C54.2084 49.7742 57.4404 44.1775 61.4183 41.8936L67.0845 38.6211C67.1991 38.5358 67.3335 38.481 67.4751 38.4618C67.6166 38.4426 67.7607 38.4596 67.8939 38.5113L71.2358 40.4829" stroke="black" stroke-miterlimit="10"/>
<path d="M74.1562 58.4676C73.7341 59.7685 72.7165 60.5086 72.2193 60.5086L61.5981 61.1735C58.8517 61.3527 57.5855 58.9938 57.5855 56.3226C57.5855 51.7492 60.8233 46.1524 64.7954 43.8628L70.4616 40.596C71.0398 40.2434 71.618 40.4168 71.618 41.261C71.5831 41.7876 71.4285 42.2993 71.166 42.7572C70.9035 43.2151 70.54 43.6071 70.1031 43.9032L64.4717 47.17C63.2612 47.9534 62.2538 49.0128 61.5321 50.2611C60.8105 51.5094 60.3952 52.911 60.3203 54.351C60.3203 56.0855 61.1644 57.5541 62.8932 57.5541H63.1014L73.6994 56.8892C74.3701 56.7793 74.4048 57.7622 74.1562 58.4676Z" stroke="black" stroke-miterlimit="10"/>
</svg>
