<svg width="175" height="191" viewBox="0 0 175 191" fill="none" xmlns="http://www.w3.org/2000/svg">
<path d="M125.169 64.2687L131.744 44.9099L122.442 33.0219L122.376 33.0447L104.257 32.8177L99.9745 37.3729L99.9336 37.464L99.858 37.259L96.2807 24.3231L84.6863 24.0048L66.7405 23.6411L64.0861 42.1115L64.0704 42.271L60.7797 40.0164L42.9504 39.7666L35.3081 52.7941L35.2262 52.9763L35.1853 53.0674L43.2215 70.0114C43.1806 70.1026 43.1397 70.1937 43.1649 70.262C41.4519 75.318 40.3215 80.9434 39.8964 86.8649C39.8555 86.956 39.8807 87.0243 39.865 87.1837L28.1699 93.0601L27.6157 93.174L28.8628 108.684L28.9226 109.048L43.1685 114.536L48.8493 127.517L43.723 146.762L52.0899 157.124L69.8026 157.26L73.8962 153.001L73.9214 153.07L79.4543 169.49L79.5204 169.467L97.0537 168.51L107.401 167.872L107.442 167.781L109.797 147.488L109.863 147.465C110.525 147.238 111.028 146.987 111.69 146.759L131.304 148.011L138.739 134.824L131.855 121.41C133.738 115.603 134.831 109.066 134.812 102.143L134.878 102.12L145.732 96.9951L145.707 96.9268L144.756 81.0073L130.79 76.8857C129.285 72.3991 127.408 68.1176 125.169 64.2687ZM76.9974 102.191C76.8368 101.553 76.6762 100.915 76.5156 100.278C76.4557 99.9133 76.3959 99.5489 76.3361 99.1845C76.2164 98.4557 76.0967 97.7269 76.018 96.907C74.4749 85.0414 78.3952 74.451 85.4016 69.8047C90.336 74.4961 94.0172 81.8522 95.1792 90.4609C96.6971 102.258 92.7768 112.849 85.8618 117.541C82.1429 114.124 79.145 109.228 77.3847 103.443C77.2084 102.965 77.0824 102.623 76.9974 102.191Z" fill="#EFEFEF"/>
<path d="M125.247 63.9525L131.82 44.6285L122.525 32.761L108.913 46.1285C106.481 44.5825 104.058 43.2639 101.43 42.4L99.9797 37.0574L96.3557 24.0078L84.7684 23.6893L82.3873 42.2632C81.2638 42.6496 79.7941 43.3089 77.9781 44.241C76.1622 45.173 74.4564 46.6053 73.978 46.9235C73.5657 47.2191 73.2447 47.5601 72.7663 47.8784L67.4765 44.2408L65.1762 42.6493L64.1881 41.99L60.8997 39.7392L53.5406 52.493L53.2699 52.9705L59.2317 70.135L53.7477 88.777L44.7939 93.7783L46.0354 108.647L61.109 114.376L67.0555 126.857L60.3284 145.158L69.8375 156.798L82.962 143.522C82.962 143.522 83.0532 143.567 83.327 143.704L83.692 143.885C84.0571 144.067 84.2648 144.226 84.6298 144.408C84.9948 144.59 85.2686 144.727 85.4763 144.886C85.6588 144.977 86.0239 145.159 86.2976 145.295C86.4801 145.386 86.8452 145.568 87.119 145.704C87.3015 145.795 87.6665 145.977 87.9403 146.114C88.4627 146.318 89.0102 146.591 89.5326 146.796L97.3602 168.007L107.701 167.37L110.032 147.046C110.693 146.819 111.197 146.569 111.858 146.341C115.301 144.773 118.467 142.454 121.258 139.726L131.46 147.592L138.933 134.338L132.055 120.948C133.937 115.15 135.03 108.626 135.012 101.714L145.926 96.5766L144.952 80.6171L131.021 76.5702C129.36 72.0687 127.485 67.7947 125.247 63.9525ZM110.685 77.5701C111.616 81.7077 112.77 85.8454 113.371 90.0967C113.764 92.5748 113.72 95.2801 114.229 97.8719C114.579 98.2129 114.928 98.5539 115.17 99.0086C116.205 100.805 116.646 102.805 116.284 104.851C116.035 106.397 114.625 107.42 113.161 107.693C113.06 110.649 112.66 113.399 110.86 115.786C109.069 120.015 102.743 122.652 98.3847 121.538C98.0448 121.424 97.7962 121.356 97.5224 121.22C97.3903 121.265 97.3242 121.288 97.2172 121.402C95.096 122.515 92.9968 123.084 90.7469 121.629C88.5882 120.219 87.4744 117.605 87.975 115.127C88.6866 111.807 91.7204 111.148 93.4295 108.716C95.0977 106.374 95.1704 102.737 95.454 99.8721C96.2541 92.7563 94.3666 86.0269 91.8748 79.2748C91.3966 77.9789 91.6642 76.8877 92.256 76.0692C90.714 75.5236 89.1468 74.9097 87.6867 74.1822C83.5549 72.0678 86.4602 65.6114 90.5921 67.7257C91.1396 67.9985 91.6872 68.2714 92.2096 68.476C92.9523 68.0668 93.8366 67.8395 94.7807 67.9759C100.096 68.4534 103.885 71.4544 106.619 75.433C108.221 74.7282 110.144 75.2966 110.685 77.5701Z" fill="white"/>
<path d="M35.2459 54.8832L43.1008 41.2458L61.4071 41.7033" stroke="#232323" stroke-miterlimit="10" stroke-linejoin="round"/>
<path d="M75.8069 89.7061C76.2428 80.8041 79.862 73.2649 85.4685 69.4955C90.3971 74.174 94.0731 81.5093 95.2322 90.0935C96.7461 101.857 92.8275 112.416 85.9184 117.094C89.8247 120.819 94.5997 122.863 99.4946 122.409C110.351 121.365 117.624 108.194 115.604 92.8427C113.634 77.6274 103.145 65.9541 92.2891 66.998C89.7504 67.1795 87.4884 68.1104 85.4434 69.4274" stroke="#00AE46" stroke-miterlimit="10" stroke-linecap="round"/>
<path d="M53.4687 52.8014L53.7392 52.3259L61.043 39.4866L64.326 41.7294L65.3125 42.3864L67.609 43.9722L72.8901 47.597C73.3019 47.3026 73.6226 46.963 74.1005 46.6461C74.6444 46.3065 76.3484 44.8801 78.0962 43.9746C79.844 43.0691 81.312 42.4127 82.5001 42.0053L84.8853 23.5031L96.4566 23.8228L100.07 36.8231L101.517 42.1455C104.14 43.0067 106.626 44.2982 108.988 45.8614L122.587 32.5479L131.865 44.3719L125.343 63.7564C127.576 67.5843 129.446 71.8424 130.946 76.3043L144.857 80.3387L145.823 96.2373L134.922 101.353C134.937 108.238 133.818 114.669 131.961 120.512L138.825 133.853L131.357 147.054L121.172 139.216C118.383 141.933 115.221 144.242 111.782 145.804C111.122 146.031 110.619 146.28 109.959 146.506L107.623 166.752L97.2296 167.406L89.6221 146.818L89.3961 146.207C88.8746 146.003 88.3279 145.731 87.8063 145.527C87.6241 145.436 87.2596 145.255 86.9862 145.119C86.804 145.029 86.4396 144.847 86.1662 144.711C85.984 144.621 85.6195 144.439 85.3462 144.303C85.2299 144.19 84.8655 144.009 84.501 143.828C84.1366 143.646 83.9292 143.488 83.5648 143.307C83.4736 143.261 83.3825 143.216 83.2003 143.125C83.0181 143.035 82.8358 142.944 82.8358 142.944" stroke="#232323" stroke-miterlimit="10" stroke-linejoin="round"/>
<path d="M64.4755 43.2706L67.1407 24.5404L85.1542 24.9095" stroke="#232323" stroke-miterlimit="10"/>
<path d="M88.8907 147.584C88.8907 147.584 88.7142 147.104 88.6637 146.967C88.1405 146.762 87.5921 146.488 87.0689 146.282C86.8861 146.191 86.5205 146.008 86.2463 145.872C86.0635 145.78 85.6978 145.598 85.4236 145.461C85.2408 145.369 84.8752 145.187 84.601 145.05C84.4844 144.935 84.1188 144.753 83.7531 144.57C83.3875 144.387 83.1133 144.25 82.8139 144.045C82.7225 143.999 82.6311 143.954 82.4483 143.862C82.2654 143.771 82.0826 143.68 82.0826 143.68L76.8641 148.955L75.1246 150.714L73.0636 152.815L68.9669 157.086L59.8447 146.491L60.938 143.179L66.2403 126.988" stroke="#232323" stroke-miterlimit="10" stroke-linejoin="round"/>
<path d="M48.1282 127.975L66.339 127.632L61.1051 143.767L60.0123 147.071L69.1276 157.645L51.4113 157.509L43.0425 147.141L48.1282 127.975Z" stroke="#232323" stroke-miterlimit="10" stroke-linejoin="round"/>
<path d="M59.7619 68.9296L52.8639 54.6905L52.7068 54.6678L34.8914 54.3461L42.9662 71.1659L43.0164 71.3018L42.9755 71.3923C41.0653 76.4846 39.909 82.0072 39.5817 88.1638L27.3398 94.2719L28.6755 109.958L42.8211 115.44C44.4208 120.171 46.3003 124.653 48.5414 128.705L66.7091 128.37C64.4113 124.567 62.4091 120.357 60.7778 115.942L45.7965 110.212L44.4543 94.9102L55.8885 89.232L56.3914 88.9831C56.3728 88.5304 56.4462 86.5159 56.5596 86.018C56.5252 85.7237 57.1443 80.1558 57.3776 78.7751C57.3841 78.3903 58.2254 74.4295 58.3732 74.2258C58.5182 73.411 58.7794 72.7094 59.0155 71.9398L59.7619 68.9296Z" stroke="#232323" stroke-miterlimit="10" stroke-linecap="round" stroke-linejoin="round"/>
<path d="M28.3748 110.144L45.5698 110.434" stroke="#232323" stroke-miterlimit="10"/>
<path d="M27.1755 94.5693L44.4272 95.2327" stroke="#232323" stroke-miterlimit="10"/>
<path d="M43.0662 147.448L59.9971 147.201" stroke="#232323" stroke-miterlimit="10" stroke-linejoin="round"/>
<path d="M96.4845 167.899L78.8897 168.878L73.2678 152.424" stroke="#232323" stroke-miterlimit="10" stroke-linejoin="round"/>
<path d="M131.126 146.333L111.336 145.064" stroke="#232323" stroke-miterlimit="10" stroke-linejoin="round"/>
<path d="M77.2231 103.506C78.9558 109.199 81.9232 114.02 85.6132 117.386L85.5473 117.409" stroke="#232323" stroke-miterlimit="10" stroke-linecap="round"/>
<path d="M100.541 37.3009L104.927 32.5539L123.259 32.8553" stroke="#232323" stroke-miterlimit="10"/>
</svg>
