<svg width="147" height="123" viewBox="0 0 147 123" fill="none" xmlns="http://www.w3.org/2000/svg">
<g clip-path="url(#clip0_0_16102)">
<path d="M11.8632 70.2428C11.8632 70.2428 25.8226 66.7836 32.4345 60.2574C39.0464 53.7313 51.7123 43.2589 54.6231 41.4432C57.5392 39.5191 70.9573 33.7532 72.6087 33.2891C74.2601 32.8251 79.6161 34.3848 79.6161 34.3848L102.553 56.6622C102.553 56.6622 120.413 55.6705 123.055 59.4898C125.701 63.2007 123.615 65.9248 122.707 66.7502C121.799 67.5756 118.475 68.9372 118.475 68.9372C118.475 68.9372 119.445 71.373 118.262 73.3801C117.08 75.3872 112.693 78.5442 112.693 78.5442C112.693 78.5442 112.703 82.8892 111.995 84.0501C111.283 85.3193 108.568 87.5789 108.568 87.5789C108.568 87.5789 107.978 93.0899 105.099 94.2555C102.219 95.421 96.7385 96.4621 96.7385 96.4621L50.5175 97.7255L46.2031 99.3654L11.8632 70.2428Z" fill="white"/>
<path d="M95.0159 23.502C95.4919 18.0941 97.65 13.8529 101.433 11.9703C109.448 7.90074 123.249 16.8159 130.403 30.7349C137.557 44.6539 136.476 58.1788 128.461 62.2483C125.787 63.641 122.64 63.5989 119.327 62.4629" stroke="#1C1D22" stroke-miterlimit="10" stroke-linecap="round" stroke-linejoin="round"/>
<path d="M49.2158 45.5307C51.7035 43.4775 53.7319 41.9454 54.6299 41.3367C57.546 39.4126 70.9641 33.6467 72.6155 33.1827C74.2669 32.7186 79.6229 34.2783 79.6229 34.2783" stroke="#00AE46" stroke-miterlimit="10" stroke-linecap="round" stroke-linejoin="round"/>
<path d="M11.8635 70.2426C11.8635 70.2426 25.8229 66.7834 32.4348 60.2572C34.9433 57.7706 38.4634 54.572 41.9731 51.5902" stroke="#00AE46" stroke-miterlimit="10" stroke-linecap="round" stroke-linejoin="round"/>
<path d="M129.688 52.529C129.14 54.8923 126.487 58.1323 124.036 59.4269C124.036 59.4269 117.581 58.1405 108.551 56.1877C106.657 57.1832 104.886 57.8587 103.689 57.91C99.6589 58.1516 95.7215 58.7235 90.128 57.5868C84.6429 56.4554 79.544 58.6009 76.4989 60.9532C74.1247 62.9032 72.1165 66.2827 71.2853 67.7635C71.053 68.0783 71.1407 68.5169 71.2283 68.9556C72.6152 74.0181 72.0826 78.3372 69.6202 82.1294C66.3319 87.294 62.1627 85.8998 61.0018 85.1925C59.8409 84.4853 58.5411 82.1422 58.2736 78.6538C58.0061 75.1653 56.557 71.4032 55.6186 68.3171C54.6749 65.3394 53.2823 62.666 56.9989 57.6304C58.3875 55.8505 60.8343 52.3834 60.9536 49.891C61.0729 47.3986 61.7755 44.0652 63.9485 41.7797C66.1215 39.4942 71.3651 36.5954 80.6498 30.9575C87.6946 26.7329 93.3561 24.1799 96.1223 23.1176C97.7223 21.4563 100.097 19.5063 100.546 19.202C101.449 18.4849 103.018 17.4739 104.22 17.3142C111.12 16.1238 120.768 23.3196 126.235 33.8995C130.037 40.7068 130.912 47.3742 129.688 52.529Z" fill="#F0F0F0"/>
<path d="M40.9745 101.941C40.9745 101.941 51.2501 96.025 56.534 96.8209C61.8128 97.7252 94.3487 96.4585 98.4769 96.4389C102.502 96.3057 106.424 93.7781 107.385 91.869C108.231 90.0631 108.521 88.5564 108.567 87.5811" stroke="#00AE46" stroke-miterlimit="10" stroke-linecap="round" stroke-linejoin="round"/>
<path d="M92.4671 88.1157C94.6344 88.2194 96.8068 88.2148 99.0929 88.107C101.271 87.994 103.448 87.881 105.528 87.546C106.622 87.3812 107.613 87.1028 108.5 86.7108C109.388 86.3188 110.178 85.7049 110.761 84.864C111.819 83.1768 112.031 81.0147 111.697 78.935C111.604 78.6047 111.836 78.29 112.161 78.3056C112.491 78.2128 112.806 78.4451 112.791 78.7702C113.229 80.9634 113.104 83.5641 111.814 85.566C111.112 86.6185 110.1 87.3304 109.094 87.9339C107.984 88.4239 106.885 88.6971 105.791 88.862C103.603 89.1917 101.317 89.2995 99.1494 89.1958C96.9821 89.0921 94.7064 88.9832 92.5495 88.6627C92.4411 88.6575 92.3379 88.544 92.3483 88.3272C92.2451 88.2137 92.3587 88.1105 92.4671 88.1157Z" fill="#00AE46"/>
<path d="M94.972 78.8923C97.903 78.924 100.942 78.9609 103.879 78.8842C105.401 78.8484 106.815 78.8075 108.342 78.6634C109.761 78.5141 111.284 78.4783 112.615 77.8903C115.268 76.9312 117.436 74.7541 118.107 72.0709C118.495 70.7861 118.237 69.3618 117.53 68.2418C116.823 67.1218 115.781 66.2031 114.496 65.8157C114.177 65.6918 113.975 65.3563 114.094 65.1448C114.218 64.8249 114.554 64.6237 114.765 64.7425C116.375 65.1453 117.732 66.2964 118.645 67.6435C119.553 69.0989 119.795 70.8483 119.284 72.453C118.483 75.5645 115.969 78.1595 112.986 79.2115C111.438 79.789 109.911 79.9332 108.388 79.9689C106.866 80.0047 105.344 80.0404 103.827 79.9678C100.793 79.8226 97.8667 79.6826 94.8429 79.3206C94.7345 79.3154 94.6313 79.2019 94.6365 79.0935C94.7501 78.9903 94.7552 78.882 94.972 78.8923Z" fill="#00AE46"/>
<path d="M97.711 69.3545C97.711 69.3545 105.616 69.8415 111.706 69.6985C120.189 69.4528 123.42 67.761 123.942 63.6587C124.573 59.5616 122.39 57.5021 116.116 56.9846C114.062 56.7777 111.461 56.6532 108.855 56.6371" fill="white"/>
<path d="M97.7208 69.1389C99.7849 69.1291 101.735 69.2224 103.8 69.2126C105.755 69.1976 107.819 69.1878 109.775 69.1727C111.731 69.1577 113.8 69.0395 115.761 68.9162C117.727 68.6844 119.699 68.3443 121.268 67.3333C122.052 66.8278 122.625 66.2035 122.992 65.3522C123.358 64.5008 123.513 63.5307 123.555 62.6638C123.601 61.6885 123.318 60.806 122.807 60.1299C122.296 59.4538 121.559 58.984 120.599 58.6123C118.783 57.9823 116.837 57.7805 114.892 57.5788C112.941 57.4855 110.882 57.3869 108.932 57.2936C108.607 57.278 108.4 57.0509 108.416 56.7258C108.431 56.4007 108.659 56.1944 108.984 56.2099C111.048 56.2001 112.998 56.2934 115.057 56.392C117.111 56.5989 119.17 56.6974 121.198 57.4462C122.157 57.8179 123.215 58.4116 123.927 59.4232C124.644 60.3264 124.912 61.534 124.86 62.6177C124.808 63.7013 124.648 64.7798 124.163 65.8427C123.678 66.9056 122.878 67.7362 121.979 68.3449C120.08 69.4487 117.995 69.892 116.029 70.1237C113.955 70.3503 111.999 70.3653 109.93 70.4835C107.866 70.4933 105.915 70.4 103.856 70.3014C101.797 70.2029 99.8518 70.0012 97.798 69.7943C97.6896 69.7891 97.5865 69.6755 97.5917 69.5671C97.4988 69.2369 97.6124 69.1337 97.7208 69.1389Z" fill="#00AE46"/>
<path d="M100.542 12.4697L111.23 7.00755C112.789 6.21324 114.972 5.99187 116.711 5.96649C118.666 5.95148 121.04 6.28231 123.063 7.13941C129.77 9.95855 137.163 16.6119 141.733 25.5197C143.023 28.0795 143.987 30.6238 144.74 33.0493" stroke="#1C1D22" stroke-miterlimit="10" stroke-linecap="round" stroke-linejoin="round"/>
<path d="M2.94874 68.1886C5.75122 66.3677 9.10589 64.356 12.8888 62.4734C20.9089 58.2955 34.7054 67.319 41.8541 81.3464C48.1106 93.5933 48.0612 105.973 42.4764 111.462C39.7408 114.155 34.6264 116.626 33.6252 117.121C33.6252 117.121 35.6609 106.357 32.1493 95.7619C27.7869 82.5195 15.1762 78.2231 15.1762 78.2231" fill="white"/>
<path d="M2.94874 68.1886C5.75122 66.3677 9.10589 64.356 12.8888 62.4734C20.9089 58.2955 34.7054 67.319 41.8541 81.3464C48.1106 93.5933 48.0612 105.973 42.4764 111.462C39.7408 114.155 34.6264 116.626 33.6252 117.121C33.6252 117.121 35.6609 106.357 32.1493 95.7619C27.7869 82.5195 15.1762 78.2231 15.1762 78.2231" stroke="#00AE46" stroke-miterlimit="10" stroke-linecap="round" stroke-linejoin="round"/>
<path d="M118.223 49.2656C118.223 49.2656 115.667 55.0084 106.863 57.411C103.013 58.4214 95.8196 58.9461 90.3345 57.8146C84.8493 56.6832 79.7505 58.8287 76.7053 61.181C74.3311 63.131 72.2146 66.5053 71.497 67.883C71.2647 68.1977 71.3523 68.6363 71.4399 69.075C72.8268 74.1376 72.2943 78.4566 69.8319 82.2488C66.5435 87.4135 62.3744 86.0192 61.2187 85.2036C60.0578 84.4963 58.7579 82.1532 58.4853 78.7732C58.2178 75.2848 56.7738 71.4142 55.8302 68.4365C54.8866 65.4588 53.4939 62.7854 57.2106 57.7499C58.5991 55.9699 61.0459 52.5028 61.1652 50.0104C61.2845 47.518 61.9871 44.1846 64.1601 41.8991C66.3332 39.6137 71.5767 36.7148 80.8615 31.0769C82.5388 30.071 93.8721 24.7484 96.3598 22.6952C97.6037 21.6686 99.8747 19.605 101.129 18.3617C102.037 17.5362 103.482 16.8451 104.798 16.5823C111.801 15.5054 121.552 22.8148 127.009 33.6114C130.589 40.5167 131.454 47.4008 130.225 52.664C129.409 56.1005 127.561 58.4016 124.149 59.3244" stroke="#1C1D22" stroke-miterlimit="10" stroke-linecap="round" stroke-linejoin="round"/>
<circle cx="57.5778" cy="98.8542" r="4.76599" transform="rotate(2.74014 57.5778 98.8542)" fill="#F0F0F0" stroke="#1C1D22"/>
<path d="M73.5216 98.6836C73.37 101.85 70.817 104.256 67.8699 104.115C64.9228 103.974 62.6113 101.335 62.7628 98.1686C62.9144 95.0024 65.4673 92.5963 68.4145 92.7373C71.3616 92.8784 73.6731 95.5173 73.5216 98.6836Z" fill="#F0F0F0" stroke="#1C1D22"/>
<path d="M84.6915 98.6006C84.5399 101.767 81.9869 104.173 79.0398 104.032C76.0927 103.891 73.7812 101.252 73.9327 98.0856C74.0843 94.9194 76.6373 92.5133 79.5844 92.6543C82.5315 92.7954 84.843 95.4343 84.6915 98.6006Z" fill="#F0F0F0" stroke="#1C1D22"/>
<path d="M94.6207 98.4526C94.5044 100.883 92.3053 102.803 89.6472 102.676C86.989 102.549 84.9833 100.427 85.0996 97.9969C85.216 95.5667 87.4151 93.6464 90.0732 93.7736C92.7314 93.9009 94.737 96.0224 94.6207 98.4526Z" fill="#F0F0F0" stroke="#1C1D22"/>
</g>
<defs>
<clipPath id="clip0_0_16102">
<rect width="141.252" height="116.3" fill="white" transform="translate(5.55859) rotate(2.74014)"/>
</clipPath>
</defs>
</svg>
