<svg width="135" height="131" viewBox="0 0 135 131" fill="none" xmlns="http://www.w3.org/2000/svg">
<path d="M77.4957 108.644L65.9766 107.279C65.9766 107.279 72.1344 99.2734 74.1342 93.9044L77.4957 108.644Z" fill="#F0F0F0" stroke="#333333" stroke-miterlimit="10" stroke-linecap="round" stroke-linejoin="round"/>
<path d="M22.5002 123.952L16.0102 95.4935C16.0102 95.4935 28.9554 87.6283 34.9033 73.9895C40.8512 60.3506 41.5145 51.1411 39.8352 32.3328L62.6068 33.895C62.6068 33.895 65.1924 58.0236 59.4647 73.3011C53.6576 88.9037 45.129 93.9193 40.9249 97.0275L47.3151 125.048L22.5002 123.952Z" fill="white" stroke="#333333" stroke-miterlimit="10" stroke-linecap="round" stroke-linejoin="round"/>
<path d="M39.7241 32.5107L60.184 21.243L82.9761 23.5681L62.675 34.1856L39.7241 32.5107Z" fill="white" stroke="#333333" stroke-miterlimit="10" stroke-linecap="round" stroke-linejoin="round"/>
<path d="M70.3542 15.3916L93.7762 17.1124C93.7762 17.1124 101.103 47.2221 81.4704 72.8867C81.4704 72.8867 84.7785 60.464 84.8965 49.5365C84.8965 49.5365 85.8107 38.7344 83.1123 23.5361L71.3348 22.3838L70.3542 15.3916Z" fill="#F0F0F0" stroke="#333333" stroke-miterlimit="10" stroke-linecap="round" stroke-linejoin="round"/>
<path d="M70.3586 15.3913L89.0211 4.99404L112.41 6.569L93.6014 16.9995L70.3586 15.3913Z" fill="white" stroke="#333333" stroke-miterlimit="10" stroke-linecap="round" stroke-linejoin="round"/>
<path d="M108.002 90.9416L96.4109 91.2819C96.4109 91.2819 100.799 86.2893 104.74 76.6395L108.002 90.9416Z" fill="#F0F0F0" stroke="#333333" stroke-miterlimit="10" stroke-linecap="round" stroke-linejoin="round"/>
<path d="M127.665 76.7872L112.885 8.61283C112.918 8.75877 115.532 35.0304 113.015 49.5757C111.033 61.0818 106.232 73.6914 104.821 76.9302L108.05 91.0864L127.665 76.7872Z" fill="white" stroke="#333333" stroke-miterlimit="10" stroke-linecap="round" stroke-linejoin="round"/>
<path d="M22.4997 123.951L16.043 95.6387L40.9909 97.3187L47.3811 125.339L22.4997 123.951Z" fill="#F0F0F0" stroke="#333333" stroke-miterlimit="10" stroke-linecap="round" stroke-linejoin="round"/>
<path d="M40.9974 97.318L47.3875 125.338C47.3875 125.338 65.4382 112.931 74.182 94.0489L77.5102 108.643C77.5102 108.643 88.6247 101.502 97.0228 90.5288C105.905 78.9843 112.47 56.607 113.417 45.9509C114.577 35.5534 113.904 13.7521 112.274 6.60104L93.4651 17.0316C93.4651 17.0316 97.331 31.9635 91.9975 50.9893C88.5767 63.5913 81.0133 72.8391 81.0133 72.8391C81.0133 72.8391 87.7038 49.6656 82.6552 23.4886L62.3541 34.106C62.3541 34.106 64.7015 59.2102 59.596 72.5034C56.2393 82.0201 52.3039 89.673 40.9974 97.318Z" fill="white" stroke="#00AE46" stroke-miterlimit="10" stroke-linecap="round" stroke-linejoin="round"/>
</svg>
