<svg width="144" height="190" viewBox="0 0 144 190" fill="none" xmlns="http://www.w3.org/2000/svg">
<path d="M97.0875 128.801L110.35 114.455L124.007 128.133L118.186 142.807L108.677 149.26L97.0875 128.801Z" fill="#E0E0E0" stroke="#040505" stroke-linecap="round" stroke-linejoin="round"/>
<path d="M98.779 156.513L87.5144 164.139L69.7692 158.517L67.8011 139.316L87.3099 138.106L98.779 156.513Z" fill="#E0E0E0" stroke="#040505" stroke-linecap="round" stroke-linejoin="round"/>
<path d="M72.9714 151.091C72.9714 151.091 49.1066 143.036 23.3179 99.9194C-2.43162 56.7935 12.332 22.4507 12.332 22.4507L13.0424 21.9466C13.0424 21.9466 36.9837 20.8322 62.6244 40.5645C64.4174 41.9625 66.2294 43.439 68.0211 45.0037C69.4034 46.251 70.7953 47.5377 72.1573 48.8732C75.5426 52.2166 78.7205 55.7349 81.7005 59.4672C113.014 98.7555 112.795 119.066 112.795 119.066C112.795 119.066 114.945 136.435 87.4352 149.143L72.9714 151.091Z" fill="white"/>
<path d="M40.7768 27.9472L37.2636 32.871C31.7856 40.5149 23.7368 45.9501 14.6259 48.1888L8.34546 49.745" stroke="#040505" stroke-linecap="round" stroke-linejoin="round"/>
<path d="M42.1629 66.8469C38.5402 64.0419 35.197 62.7627 32.5372 62.9686C31.7237 64.6341 31.3111 66.5164 31.348 68.5201C31.3013 77.9869 38.3075 91.1776 47.011 97.9419C50.6337 100.747 53.9768 102.026 56.648 101.861C57.4616 100.195 57.8742 98.3128 57.8373 96.3092C57.8764 90.6952 55.3429 83.8572 51.6621 77.7692C50.2283 75.4972 48.579 73.398 46.7856 71.4569" fill="#E0E0E0"/>
<path d="M30.5839 68.3809C30.4696 66.3634 30.7905 64.48 31.5038 62.8255C27.9203 62.9441 25.7249 65.9657 25.9175 71.5262C26.246 81.0525 33.4747 94.5143 42.0754 101.553C48.5847 106.908 54.0246 107 56.1116 102.567C53.5603 102.663 50.3212 101.328 46.7293 98.3672C38.1537 91.41 30.9588 77.9418 30.5839 68.3809Z" fill="#F6F5F5" stroke="#59B255" stroke-linecap="round" stroke-linejoin="round"/>
<path d="M41.6664 66.7127C38.1048 63.7989 34.8694 62.4251 32.3433 62.5614C31.6335 64.2128 31.3143 66.0926 31.428 68.1063C31.7549 77.6145 38.9476 91.0507 47.5054 98.0765C51.067 100.99 54.3024 102.364 56.841 102.269C57.5507 100.617 57.87 98.7374 57.7563 96.7238C57.5733 91.0856 54.8913 84.1495 51.1455 77.9363C49.6903 75.6161 48.0365 73.4637 46.2517 71.4662" stroke="#59B255" stroke-linecap="round" stroke-linejoin="round"/>
<path d="M67.9519 45.0619C69.3343 46.3093 70.7261 47.596 72.0881 48.9315C75.4735 52.2749 78.6514 55.7932 81.6314 59.5255C112.945 98.8138 112.726 119.125 112.726 119.125C112.726 119.125 116.136 133.611 91.9237 147.228C91.9237 147.228 86.7301 150.186 79.4847 151.018C72.2488 151.89 68.2043 149.953 68.2043 149.953C68.2043 149.953 49.1066 143.036 23.3179 99.9194C-2.43162 56.7935 12.332 22.4507 12.332 22.4507L13.0424 21.9466C13.0424 21.9466 36.9837 20.8322 62.6244 40.5645" stroke="#040505" stroke-linecap="round" stroke-linejoin="round"/>
<path d="M87.4258 95.8154L101.705 120.7C101.705 120.7 112.522 120.879 116.514 130.191C118.217 134.148 126.72 144.91 126.72 144.91L134.488 139.001C134.488 139.001 129.062 120.468 123.364 112.191C116.405 102.138 91.1956 95.4055 87.4258 95.8154Z" fill="#F6F5F5" stroke="#040505" stroke-linecap="round" stroke-linejoin="round"/>
<path d="M87.4284 95.8146L90.9865 90.2144C90.9865 90.2144 107.824 94.1409 120.015 105.885C132.168 117.639 136.442 134.329 136.442 134.329L134.539 139.03C134.539 139.03 126.134 119.01 115.458 109.064C104.732 99.0878 87.4284 95.8146 87.4284 95.8146Z" fill="#F6F5F5" stroke="#040505" stroke-linecap="round" stroke-linejoin="round"/>
<path d="M58.9383 161.38C65.2682 169.172 81.5809 179.548 81.5809 179.548L89.4076 173.708C89.4076 173.708 81.4382 162.568 78.107 159.794C70.3142 153.354 73.1278 142.941 73.1278 142.941L53.213 122.286C51.7808 125.834 51.2099 151.929 58.9383 161.38Z" fill="#F6F5F5" stroke="#040505" stroke-linecap="round" stroke-linejoin="round"/>
<path d="M58.0967 152.888C64.6871 165.899 81.5806 179.546 81.5806 179.546L76.5447 180.054C76.5447 180.054 61.7092 171.318 53.8111 156.334C45.9226 141.389 46.8711 124.105 46.8711 124.105L53.2519 122.275C53.2126 122.285 51.5063 139.876 58.0967 152.888Z" fill="#F6F5F5" stroke="#040505" stroke-linecap="round" stroke-linejoin="round"/>
</svg>
